<?xml version='1.0' encoding='UTF-8' standalone='no'?>
<!-- Created with Fritzing (http://www.fritzing.org/) -->
<svg xmlns:svg='http://www.w3.org/2000/svg' xmlns='http://www.w3.org/2000/svg' version='1.2' baseProfile='tiny' x='0in' y='0in' width='0.826781in' height='2.08663in' viewBox='0 0 59.5283 150.237' >
<g partID='62120'><g  id="breadboard">
 <path  fill="none" stroke-width="1" d="m13.6211,13.998c1.38901,0,2.51901,-1.13,2.51901,-2.52,0,-1.39,-1.13001,-2.519,-2.51901,-2.519,-1.38901,0,-2.51901,1.13,-2.51901,2.519,0,1.389,1.13,2.52,2.51901,2.52z" id="path4"/>
 <path  fill="none" stroke-width="1" d="m45.9072,146.948c1.38901,0,2.51901,-1.13,2.51901,-2.52,0,-1.39,-1.13,-2.52,-2.51901,-2.52,-1.39001,0,-2.52001,1.13,-2.52001,2.52,0,1.39,1.13,2.52,2.52001,2.52z" id="path6"/>
 <path  fill="none" stroke-width="1" d="m45.9072,13.998c1.38901,0,2.51901,-1.13,2.51901,-2.52,0,-1.39,-1.13,-2.519,-2.51901,-2.519,-1.39001,0,-2.52001,1.13,-2.52001,2.519,0,1.389,1.13,2.52,2.52001,2.52z" id="path8"/>
 <ellipse  cx="13.6211" fill="none" rx="2.51901" ry="2.519" stroke-width="1" id="circle10" cy="144.428"/>
 <path  fill="#004e29" stroke-width="1" d="m59.5273,15.536l0,-4.782c0,0,0,0,0,0,-0.197001,0,-0.376002,-0.0590004,-0.541003,-0.143l0,5.067c0.165001,-0.0840002,0.344001,-0.142,0.541003,-0.142,0,0,0,0,0,0z" id="path12"/>
 <path  fill="#004e29" stroke-width="1" d="m59.5273,22.736l0,-4.782c0,0,0,0,0,0,-0.197001,0,-0.376002,-0.0590004,-0.541003,-0.143l0,5.067c0.165001,-0.0829994,0.344001,-0.142,0.541003,-0.142,0,0,0,0,0,0z" id="path14"/>
 <path  fill="#004e29" stroke-width="1" d="m59.5273,29.936l0,-4.781c0,0,0,0,0,0,-0.197001,0,-0.376002,-0.0589997,-0.541003,-0.143l0,5.066c0.165001,-0.0840002,0.344001,-0.142,0.541003,-0.142,0,0,0,0,0,0z" id="path16"/>
 <path  fill="#004e29" stroke-width="1" d="m59.5273,37.135l0,-4.78c0,0,0,0,0,0,-0.197001,0,-0.376002,-0.0590004,-0.541003,-0.143001l0,5.065c0.165001,-0.0840002,0.344001,-0.142001,0.541003,-0.142001,0,0,0,0,0,0z" id="path18"/>
 <path  fill="#004e29" stroke-width="1" d="m59.5273,44.335l0,-4.781c0,0,0,0,0,0,-0.197001,0,-0.376002,-0.0589997,-0.541003,-0.143l0,5.066c0.165001,-0.0840002,0.344001,-0.142001,0.541003,-0.142001,0,0,0,0,0,0z" id="path20"/>
 <path  fill="#004e29" stroke-width="1" d="m59.5273,51.535l0,-4.781c0,0,0,0,0,0,-0.197001,0,-0.376002,-0.0589997,-0.541003,-0.142999l0,5.066c0.165001,-0.0840002,0.344001,-0.142,0.541003,-0.142,0,0,0,0,0,0z" id="path22"/>
 <path  fill="#004e29" stroke-width="1" d="m59.5273,58.735l0,-4.781c0,0,0,0,0,0,-0.197001,0,-0.376002,-0.0590004,-0.541003,-0.143001l0,5.066c0.165001,-0.0839995,0.344001,-0.142,0.541003,-0.142,0,0,0,0,0,0z" id="path24"/>
 <path  fill="#004e29" stroke-width="1" d="m59.5273,65.935l0,-4.781c0,0,0,0,0,0,-0.197001,0,-0.376002,-0.0590004,-0.541003,-0.143l0,5.066c0.165001,-0.0839995,0.344001,-0.141999,0.541003,-0.141999,0,0,0,0,0,0z" id="path26"/>
 <path  fill="#004e29" stroke-width="1" d="m59.5273,73.1347l0,-4.781c0,0,0,0,0,0,-0.197001,0,-0.376002,-0.0590004,-0.541003,-0.143l0,5.066c0.165001,-0.0839952,0.344001,-0.141998,0.541003,-0.141998,0,0,0,0,0,0z" id="path28"/>
 <path  fill="#004e29" stroke-width="1" d="m59.5273,80.3347l0,-4.781c0,0,0,0,0,0,-0.197001,0,-0.376002,-0.0589968,-0.541003,-0.142999l0,5.066c0.165001,-0.0840024,0.344001,-0.141998,0.541003,-0.141998,0,0,0,0,0,0z" id="path30"/>
 <path  fill="#004e29" stroke-width="1" d="m59.5273,87.5347l0,-4.78099c0,0,0,0,0,0,-0.197001,0,-0.376002,-0.059004,-0.541003,-0.142999l0,5.066c0.165001,-0.0840024,0.344001,-0.142006,0.541003,-0.142006,0,0,0,0,0,0z" id="path32"/>
 <path  fill="#004e29" stroke-width="1" d="m59.5273,94.7347l0,-4.78101c0,0,0,0,0,0,-0.197001,0,-0.376002,-0.0589968,-0.541003,-0.142999l0,5.06601c0.165001,-0.0839952,0.344001,-0.141998,0.541003,-0.141998,0,0,0,0,0,0z" id="path34"/>
 <path  fill="#004e29" stroke-width="1" d="m59.5273,101.935l0,-4.781c0,0,0,0,0,0,-0.197001,0,-0.376002,-0.0589968,-0.541003,-0.142999l0,5.066c0.165001,-0.0840024,0.344001,-0.141998,0.541003,-0.141998,0,0,0,0,0,0z" id="path36"/>
 <path  fill="#004e29" stroke-width="1" d="m59.5273,109.135l0,-4.78099c0,0,0,0,0,0,-0.197001,0,-0.376002,-0.059004,-0.541003,-0.143006l0,5.06601c0.165001,-0.0840024,0.344001,-0.142006,0.541003,-0.142006,0,0,0,0,0,0z" id="path38"/>
 <path  fill="#004e29" stroke-width="1" d="m59.5273,116.335l0,-4.78101c0,0,0,0,0,0,-0.197001,0,-0.376002,-0.0589968,-0.541003,-0.142992l0,5.066c0.165001,-0.0840024,0.344001,-0.141998,0.541003,-0.141998,0,0,0,0,0,0z" id="path40"/>
 <path  fill="#004e29" stroke-width="1" d="m59.5273,123.535l0,-4.781c0,0,0,0,0,0,-0.197001,0,-0.376002,-0.059004,-0.541003,-0.142999l0,5.066c0.165001,-0.0839952,0.344001,-0.141998,0.541003,-0.141998,0,0,0,0,0,0z" id="path42"/>
 <path  fill="#004e29" stroke-width="1" d="m59.5273,130.735l0,-4.781c0,0,0,0,0,0,-0.197001,0,-0.376002,-0.059004,-0.541003,-0.143006l0,5.066c0.165001,-0.0839952,0.344001,-0.141991,0.541003,-0.141991,0,0,0,0,0,0z" id="path44"/>
 <path  fill="#004e29" stroke-width="1" d="m59.5273,137.935l0,-4.78099c0,0,0,0,0,0,-0.197001,0,-0.376002,-0.0589968,-0.541003,-0.142999l0,5.066c0.165001,-0.0840024,0.344001,-0.142006,0.541003,-0.142006,0,0,0,0,0,0z" id="path46"/>
 <path  fill="#004e29" stroke-width="1" d="m59.5273,145.134l0,-4.78c0,0,0,0,0,0,-0.197001,0,-0.376002,-0.059004,-0.541003,-0.142999l0,5.065c0.165001,-0.0840024,0.344001,-0.141998,0.541003,-0.141998,0,0,0,0,0,0z" id="path48"/>
 <path  fill="#004e29" stroke-width="1" d="m59.5273,147.553c0,0,0,0,0,0,-0.197001,0,-0.376002,-0.059004,-0.541003,-0.142999l0,1.57699c0,0.391003,-0.317001,0.708998,-0.709002,0.708998L38.0312,149.696c0.0840009,0.165002,0.143001,0.344002,0.143001,0.541001,0,0,0,0,0,0l20.2201,0c0.626003,0,1.13401,-0.507996,1.13401,-1.134l0,-1.54999z" id="path50"/>
 <path  fill="#004e29" stroke-width="1" d="m23.6311,149.695c0.0840002,0.164995,0.143001,0.344002,0.143001,0.541001,0,0,0,0,0,0l4.78002,0c0,0,0,0,0,0,0,-0.196999,0.0590004,-0.376006,0.143001,-0.541001z" id="path52"/>
 <path  fill="#004e29" stroke-width="1" d="m30.8301,149.695c0.0840009,0.164995,0.143001,0.344002,0.143001,0.541001,0,0,0,0,0,0l4.78202,0c0,0,0,0,0,0,0,-0.196999,0.0590004,-0.376006,0.143001,-0.541001z" id="path54"/>
 <path  fill="#004e29" stroke-width="1" d="m59.1952,6.001,-0.417002,0.416c0.128001,0.128,0.208001,0.305,0.208001,0.501l0,1.558c0.165001,-0.0840002,0.344001,-0.143,0.541003,-0.143,0,0,0,0,0,0L-0.209001,6.803c0,-0.313,-0.126001,-0.596,-0.332002,-0.802001z" id="path56"/>
 <path  fill="#004e29" stroke-width="1" d="M21.4971,149.695L1.25001,149.695c-0.196,0,-0.373002,-0.0790056,-0.501002,-0.208001l-0.417002,0.415994c0.205,0.205006,0.489002,0.331999,0.802001,0.331999L21.3551,150.235c0,0,0,0,0,0,-0.0010008,-0.195991,0.0580003,-0.374998,0.142001,-0.539993z" id="path62"/>
 <path  fill="#006837" stroke-width="1" d="m0.541002,6.919l0,1.558c0.392002,0.2,0.669003,0.597,0.669003,1.067,0,0.470001,-0.277001,0.867002,-0.669003,1.067l0,5.068c0.392002,0.2,0.669003,0.597,0.669003,1.067,0,0.47,-0.277001,0.867002,-0.669003,1.067l0,5.067c0.392002,0.2,0.669003,0.597,0.669003,1.067,0,0.47,-0.277001,0.867002,-0.669003,1.067l0,5.066c0.392002,0.2,0.669003,0.597,0.669003,1.067,0,0.47,-0.277001,0.867002,-0.669003,1.067l0,5.065c0.392002,0.2,0.669003,0.597,0.669003,1.067,0,0.47,-0.277001,0.867002,-0.669003,1.067l0,5.066c0.392002,0.2,0.669003,0.597,0.669003,1.067,0,0.47,-0.277001,0.867002,-0.669003,1.067l0,5.066c0.392002,0.2,0.669003,0.597,0.669003,1.067,0,0.47,-0.277001,0.867002,-0.669003,1.067l0,5.066c0.392002,0.2,0.669003,0.597,0.669003,1.067,0,0.47,-0.277001,0.867002,-0.669003,1.067l0,5.066c0.392002,0.2,0.669003,0.597,0.669003,1.067,0,0.47,-0.277001,0.867002,-0.669003,1.067l0,5.066c0.392002,0.199994,0.669003,0.597002,0.669003,1.067,0,0.470001,-0.277001,0.867002,-0.669003,1.067l0,5.066c0.392002,0.200002,0.669003,0.596995,0.669003,1.067,0,0.469994,-0.277001,0.866995,-0.669003,1.067l0,5.06601c0.392002,0.199994,0.669003,0.596995,0.669003,1.067,0,0.470001,-0.277001,0.867002,-0.669003,1.067l0,5.066c0.392002,0.200002,0.669003,0.597009,0.669003,1.067,0,0.470001,-0.277001,0.867002,-0.669003,1.067l0,5.066c0.392002,0.200002,0.669003,0.597002,0.669003,1.067,0,0.469994,-0.277001,0.866995,-0.669003,1.067l0,5.066c0.392002,0.199994,0.669003,0.596995,0.669003,1.067,0,0.470001,-0.277001,0.867002,-0.669003,1.067l0,5.066c0.392002,0.200009,0.669003,0.597009,0.669003,1.067,0,0.470009,-0.277001,0.867002,-0.669003,1.067l0,5.066c0.392002,0.200002,0.669003,0.597002,0.669003,1.067,0,0.469994,-0.277001,0.867002,-0.669003,1.067l0,5.06601c0.392002,0.199994,0.669003,0.596995,0.669003,1.067,0,0.470001,-0.277001,0.866995,-0.669003,1.067l0,5.06601c0.392002,0.200002,0.669003,0.596995,0.669003,1.067,0,0.470001,-0.277001,0.867002,-0.669003,1.067l0,5.065c0.392002,0.200002,0.669003,0.596995,0.669003,1.067,0,0.469994,-0.277001,0.866995,-0.669003,1.067l0,1.577c0,0.391003,0.317001,0.708998,0.709003,0.708998L21.4971,128.358c0.200001,-0.391997,0.597002,-0.668995,1.067,-0.668995,0.470002,0,0.867002,0.276998,1.067,0.668995l5.06502,0c0.200001,-0.391997,0.597003,-0.668995,1.067,-0.668995,0.470002,0,0.867002,0.276998,1.067,0.668995l5.06702,0c0.200001,-0.391997,0.597003,-0.668995,1.067,-0.668995,0.470002,0,0.867002,0.276998,1.067,0.668995l20.2471,0c0.391002,0,0.709003,-0.317002,0.709003,-0.708998l0,-1.577c-0.392002,-0.200002,-0.669003,-0.597002,-0.669003,-1.067,0,-0.470009,0.277001,-0.867002,0.669003,-1.067l0,-5.065c-0.392002,-0.200002,-0.669003,-0.597002,-0.669003,-1.067,0,-0.470001,0.277001,-0.866995,0.669003,-1.067l0,-5.06601c-0.392002,-0.200002,-0.669003,-0.596995,-0.669003,-1.067,0,-0.470001,0.277001,-0.867002,0.669003,-1.067l0,-5.06601c-0.392002,-0.199994,-0.669003,-0.597002,-0.669003,-1.067,0,-0.470001,0.277001,-0.867002,0.669003,-1.067l0,-5.066c-0.392002,-0.200002,-0.669003,-0.596995,-0.669003,-1.067,0,-0.469994,0.277001,-0.866995,0.669003,-1.067l0,-5.066c-0.392002,-0.199994,-0.669003,-0.596995,-0.669003,-1.067,0,-0.470001,0.277001,-0.867002,0.669003,-1.067l0,-5.066c-0.392002,-0.200009,-0.669003,-0.597009,-0.669003,-1.067,0,-0.470001,0.277001,-0.867002,0.669003,-1.067l0,-5.066c-0.392002,-0.200002,-0.669003,-0.597002,-0.669003,-1.067,0,-0.469994,0.277001,-0.867002,0.669003,-1.067l0,-5.066c-0.392002,-0.199994,-0.669003,-0.596995,-0.669003,-1.067,0,-0.470001,0.277001,-0.867002,0.669003,-1.067l0,-5.06601c-0.392002,-0.200002,-0.669003,-0.597002,-0.669003,-1.067,0,-0.470009,0.277001,-0.867002,0.669003,-1.067l0,-5.066c-0.392002,-0.200002,-0.669003,-0.597002,-0.669003,-1.067,0,-0.469994,0.277001,-0.867002,0.669003,-1.067l0,-5.066c-0.392002,-0.2,-0.669003,-0.597,-0.669003,-1.067,0,-0.47,0.277001,-0.867002,0.669003,-1.067l0,-5.066c-0.392002,-0.2,-0.669003,-0.597,-0.669003,-1.067,0,-0.47,0.277001,-0.867002,0.669003,-1.067l0,-5.066c-0.392002,-0.2,-0.669003,-0.597,-0.669003,-1.067,0,-0.47,0.277001,-0.867002,0.669003,-1.067l0,-5.066c-0.392002,-0.2,-0.669003,-0.597,-0.669003,-1.067,0,-0.47,0.277001,-0.867002,0.669003,-1.067l0,-5.066c-0.392002,-0.199999,-0.669003,-0.596999,-0.669003,-1.067,0,-0.47,0.277001,-0.867002,0.669003,-1.067l0,-5.065c-0.392002,-0.2,-0.669003,-0.597,-0.669003,-1.067,0,-0.47,0.277001,-0.867002,0.669003,-1.067l0,-5.066c-0.392002,-0.2,-0.669003,-0.597,-0.669003,-1.067,0,-0.47,0.277001,-0.867002,0.669003,-1.067l0,-5.067c-0.392002,-0.2,-0.669003,-0.597,-0.669003,-1.067,0,-0.47,0.277001,-0.867002,0.669003,-1.067l0,-5.067c-0.392002,-0.199999,-0.669003,-0.597,-0.669003,-1.067,0,-0.47,0.277001,-0.867002,0.669003,-1.067L69.1663,6.919c0,-0.391,-0.317001,-0.709,-0.709003,-0.709L1.25001,6.21c-0.392002,0,-0.709003,0.318,-0.709003,0.709zM4.56402,147.54c-0.660003,0,-1.19701,-0.536997,-1.19701,-1.197,0,-0.660002,0.537002,-1.197,1.19701,-1.197,0.660003,0,1.19701,0.536997,1.19701,1.197,0,0.660002,-0.537002,1.197,-1.19701,1.197zM5.76103,139.144c0,0.660002,-0.537002,1.197,-1.19701,1.197,-0.660003,0,-1.19701,-0.536997,-1.19701,-1.197,0,-0.660002,0.537002,-1.197,1.19701,-1.197,0.660003,0,1.19701,0.536997,1.19701,1.197zm0,-7.2c0,0.660002,-0.537002,1.197,-1.19701,1.197,-0.660003,0,-1.19701,-0.536997,-1.19701,-1.197,0,-0.660002,0.537002,-1.197,1.19701,-1.197,0.660003,0,1.19701,0.536997,1.19701,1.197zm0,-7.2c0,0.659995,-0.537002,1.197,-1.19701,1.197,-0.660003,0,-1.19701,-0.537005,-1.19701,-1.197,0,-0.660002,0.537002,-1.197,1.19701,-1.197,0.660003,0,1.19701,0.536997,1.19701,1.197zm0,-7.2c0,0.659995,-0.537002,1.197,-1.19701,1.197,-0.660003,0,-1.19701,-0.537005,-1.19701,-1.197,0,-0.660002,0.537002,-1.19701,1.19701,-1.19701,0.660003,0,1.19701,0.537005,1.19701,1.19701zm0,-7.2c0,0.660002,-0.537002,1.197,-1.19701,1.197,-0.660003,0,-1.19701,-0.536997,-1.19701,-1.197,0,-0.659995,0.537002,-1.197,1.19701,-1.197,0.660003,0,1.19701,0.537998,1.19701,1.197zm0,-7.2c0,0.660002,-0.537002,1.197,-1.19701,1.197,-0.660003,0,-1.19701,-0.536997,-1.19701,-1.197,0,-0.660002,0.537002,-1.197,1.19701,-1.197,0.660003,0,1.19701,0.537998,1.19701,1.197zm0,-7.2c0,0.660002,-0.537002,1.197,-1.19701,1.197,-0.660003,0,-1.19701,-0.536997,-1.19701,-1.197,0,-0.660002,0.537002,-1.197,1.19701,-1.197,0.660003,0,1.19701,0.536997,1.19701,1.197zm0,-7.19999c0,0.659995,-0.537002,1.197,-1.19701,1.197,-0.660003,0,-1.19701,-0.537005,-1.19701,-1.197,0,-0.660002,0.537002,-1.19701,1.19701,-1.19701,0.660003,0,1.19701,0.537005,1.19701,1.19701zm0,-7.2c0,0.660002,-0.537002,1.197,-1.19701,1.197,-0.660003,0,-1.19701,-0.536997,-1.19701,-1.197,0,-0.660002,0.537002,-1.197,1.19701,-1.197,0.660003,0,1.19701,0.536997,1.19701,1.197zm0,-7.2c0,0.660002,-0.537002,1.197,-1.19701,1.197,-0.660003,0,-1.19701,-0.536997,-1.19701,-1.197,0,-0.660002,0.537002,-1.197,1.19701,-1.197,0.660003,0,1.19701,0.538005,1.19701,1.197zm0,-7.19999c0,0.659999,-0.537002,1.197,-1.19701,1.197,-0.660003,0,-1.19701,-0.537001,-1.19701,-1.197,0,-0.66,0.537002,-1.197,1.19701,-1.197,0.660003,0,1.19701,0.538,1.19701,1.197zm0,-7.2c0,0.66,-0.537002,1.197,-1.19701,1.197,-0.660003,0,-1.19701,-0.537,-1.19701,-1.197,0,-0.659999,0.537002,-1.197,1.19701,-1.197,0.660003,0,1.19701,0.537001,1.19701,1.197zm0,-7.2c0,0.66,-0.537002,1.197,-1.19701,1.197,-0.660003,0,-1.19701,-0.537,-1.19701,-1.197,0,-0.66,0.537002,-1.197,1.19701,-1.197,0.660003,0,1.19701,0.537,1.19701,1.197zm0,-7.2c0,0.66,-0.537002,1.197,-1.19701,1.197,-0.660003,0,-1.19701,-0.537,-1.19701,-1.197,0,-0.66,0.537002,-1.197,1.19701,-1.197,0.660003,0,1.19701,0.537,1.19701,1.197zm0,-7.2c0,0.66,-0.537002,1.197,-1.19701,1.197,-0.660003,0,-1.19701,-0.537,-1.19701,-1.197,0,-0.660001,0.537002,-1.197,1.19701,-1.197,0.660003,0,1.19701,0.538,1.19701,1.197zm0,-7.199c0,0.66,-0.537002,1.197,-1.19701,1.197,-0.660003,0,-1.19701,-0.537,-1.19701,-1.197,0,-0.66,0.537002,-1.197,1.19701,-1.197,0.660003,0,1.19701,0.537,1.19701,1.197zm0,-7.199c0,0.660001,-0.537002,1.197,-1.19701,1.197,-0.660003,0,-1.19701,-0.537,-1.19701,-1.197,0,-0.659999,0.537002,-1.197,1.19701,-1.197,0.660003,0,1.19701,0.537,1.19701,1.197zm0,-7.20101c0,0.66,-0.537002,1.197,-1.19701,1.197,-0.660003,0,-1.19701,-0.537,-1.19701,-1.197,0,-0.66,0.537002,-1.197,1.19701,-1.197,0.660003,0,1.19701,0.538,1.19701,1.197zm0,-7.20101c0,0.66,-0.537002,1.197,-1.19701,1.197,-0.660003,0,-1.19701,-0.537,-1.19701,-1.197,0,-0.659999,0.537002,-1.197,1.19701,-1.197,0.660003,0,1.19701,0.537,1.19701,1.197zM13.621,146.948c-1.38901,0,-2.51901,-1.13,-2.51901,-2.52,0,-1.39,1.13,-2.52,2.51901,-2.52,1.38901,0,2.51901,1.13,2.51901,2.52,0,1.39,-1.13,2.52,-2.51901,2.52zm0,-132.95c-1.38901,0,-2.51901,-1.13,-2.51901,-2.52,0,-1.39,1.13,-2.519,2.51901,-2.519,1.38901,0,2.51901,1.13,2.51901,2.519,0,1.389,-1.13,2.52,-2.51901,2.52zM22.5641,147.539c-0.660003,0,-1.19701,-0.536997,-1.19701,-1.197,0,-0.659995,0.537002,-1.197,1.19701,-1.197,0.660003,0,1.19701,0.537005,1.19701,1.197,0,0.660002,-0.537002,1.197,-1.19701,1.197zm7.19903,0c-0.660002,0,-1.19701,-0.536997,-1.19701,-1.197,0,-0.659995,0.537002,-1.197,1.19701,-1.197,0.660003,0,1.19701,0.537005,1.19701,1.197,0,0.660002,-0.537002,1.197,-1.19701,1.197zm24.0041,-1.196c0,-0.660002,0.537002,-1.197,1.19701,-1.197,0.660003,0,1.19701,0.536997,1.19701,1.197,0,0.660002,-0.537002,1.197,-1.19701,1.197,-0.660003,0,-1.19701,-0.536997,-1.19701,-1.197zm0,-7.199c0,-0.660002,0.537002,-1.197,1.19701,-1.197,0.660003,0,1.19701,0.536997,1.19701,1.197,0,0.660002,-0.537002,1.197,-1.19701,1.197,-0.660003,0,-1.19701,-0.536997,-1.19701,-1.197zm0,-7.2c0,-0.660002,0.537002,-1.197,1.19701,-1.197,0.660003,0,1.19701,0.536997,1.19701,1.197,0,0.660002,-0.537002,1.197,-1.19701,1.197,-0.660003,0,-1.19701,-0.536997,-1.19701,-1.197zm0,-7.2c0,-0.660002,0.537002,-1.197,1.19701,-1.197,0.660003,0,1.19701,0.536997,1.19701,1.197,0,0.659995,-0.537002,1.197,-1.19701,1.197,-0.660003,0,-1.19701,-0.537005,-1.19701,-1.197zm0,-7.2c0,-0.660002,0.537002,-1.19701,1.19701,-1.19701,0.660003,0,1.19701,0.537005,1.19701,1.19701,0,0.659995,-0.537002,1.197,-1.19701,1.197,-0.660003,0,-1.19701,-0.537005,-1.19701,-1.197zm0,-7.2c0,-0.659995,0.537002,-1.197,1.19701,-1.197,0.660003,0,1.19701,0.537005,1.19701,1.197,0,0.660002,-0.537002,1.197,-1.19701,1.197,-0.660003,0,-1.19701,-0.536997,-1.19701,-1.197zm0,-7.2c0,-0.660002,0.537002,-1.197,1.19701,-1.197,0.660003,0,1.19701,0.536997,1.19701,1.197,0,0.660002,-0.537002,1.197,-1.19701,1.197,-0.660003,0,-1.19701,-0.536997,-1.19701,-1.197zm0,-7.2c0,-0.660002,0.537002,-1.197,1.19701,-1.197,0.660003,0,1.19701,0.536997,1.19701,1.197,0,0.660002,-0.537002,1.197,-1.19701,1.197,-0.660003,0,-1.19701,-0.536997,-1.19701,-1.197zm0,-7.19999c0,-0.660002,0.537002,-1.19701,1.19701,-1.19701,0.660003,0,1.19701,0.537005,1.19701,1.19701,0,0.659995,-0.537002,1.197,-1.19701,1.197,-0.660003,0,-1.19701,-0.537005,-1.19701,-1.197zm0,-7.2c0,-0.660002,0.537002,-1.197,1.19701,-1.197,0.660003,0,1.19701,0.536997,1.19701,1.197,0,0.660002,-0.537002,1.197,-1.19701,1.197,-0.660003,0,-1.19701,-0.536997,-1.19701,-1.197zm0,-7.2c0,-0.660002,0.537002,-1.197,1.19701,-1.197,0.660003,0,1.19701,0.536997,1.19701,1.197,0,0.660002,-0.537002,1.197,-1.19701,1.197,-0.660003,0,-1.19701,-0.536997,-1.19701,-1.197zm0,-7.19999c0,-0.66,0.537002,-1.197,1.19701,-1.197,0.660003,0,1.19701,0.537,1.19701,1.197,0,0.659999,-0.537002,1.197,-1.19701,1.197,-0.660003,0,-1.19701,-0.537001,-1.19701,-1.197zm0,-7.2c0,-0.659999,0.537002,-1.197,1.19701,-1.197,0.660003,0,1.19701,0.537001,1.19701,1.197,0,0.66,-0.537002,1.197,-1.19701,1.197,-0.660003,0,-1.19701,-0.537,-1.19701,-1.197zm0,-7.2c0,-0.66,0.537002,-1.197,1.19701,-1.197,0.660003,0,1.19701,0.537,1.19701,1.197,0,0.66,-0.537002,1.197,-1.19701,1.197,-0.660003,0,-1.19701,-0.537,-1.19701,-1.197zm0,-7.2c0,-0.66,0.537002,-1.197,1.19701,-1.197,0.660003,0,1.19701,0.537,1.19701,1.197,0,0.66,-0.537002,1.197,-1.19701,1.197,-0.660003,0,-1.19701,-0.537,-1.19701,-1.197zm0,-7.2c0,-0.660001,0.537002,-1.197,1.19701,-1.197,0.660003,0,1.19701,0.537,1.19701,1.197,0,0.66,-0.537002,1.197,-1.19701,1.197,-0.660003,0,-1.19701,-0.537,-1.19701,-1.197zm0,-7.199c0,-0.66,0.537002,-1.197,1.19701,-1.197,0.660003,0,1.19701,0.537,1.19701,1.197,0,0.66,-0.537002,1.197,-1.19701,1.197,-0.660003,0,-1.19701,-0.537,-1.19701,-1.197zm0,-7.199c0,-0.659999,0.537002,-1.197,1.19701,-1.197,0.660003,0,1.19701,0.537,1.19701,1.197,0,0.660001,-0.537002,1.197,-1.19701,1.197,-0.660003,0,-1.19701,-0.537,-1.19701,-1.197zm0,-7.20101c0,-0.66,0.537002,-1.197,1.19701,-1.197,0.660003,0,1.19701,0.537,1.19701,1.197,0,0.66,-0.537002,1.197,-1.19701,1.197,-0.660003,0,-1.19701,-0.537,-1.19701,-1.197zm0,-7.20101c0,-0.659999,0.537002,-1.197,1.19701,-1.197,0.660003,0,1.19701,0.537,1.19701,1.197,0,0.66,-0.537002,1.197,-1.19701,1.197,-0.660003,0,-1.19701,-0.537,-1.19701,-1.197zM36.9641,147.539c-0.660003,0,-1.19701,-0.536997,-1.19701,-1.197,0,-0.659995,0.537002,-1.197,1.19701,-1.197,0.660003,0,1.19701,0.537005,1.19701,1.197,0,0.660002,-0.537002,1.197,-1.19701,1.197zm8.94305,-0.591005c-1.39,0,-2.52001,-1.13,-2.52001,-2.52,0,-1.39,1.13,-2.52,2.52001,-2.52,1.38901,0,2.51901,1.13,2.51901,2.52,0,1.39,-1.13,2.52,-2.51901,2.52zm0,-132.95c-1.39,0,-2.52001,-1.13,-2.52001,-2.52,0,-1.39,1.13,-2.519,2.52001,-2.519,1.38901,0,2.51901,1.13,2.51901,2.519,0,1.389,-1.13,2.52,-2.51901,2.52z" id="path66"/>
 <path  fill="#33865f" stroke-width="1" d="M58.3942,5.669L1.13401,5.669C0.508002,5.669,0,6.177,0,6.803l0,1.532c0,0,0,0,0,0,0.197001,0,0.376002,0.0590004,0.541002,0.143001L0.541002,6.919c0,-0.391,0.317001,-0.709,0.709003,-0.709L58.2782,6.21c0.196001,0,0.373002,0.0789998,0.501002,0.208l0.417002,-0.416c-0.206001,-0.206,-0.489002,-0.333,-0.802001,-0.333z" id="path70"/>
 <path  fill="#33865f" stroke-width="1" d="m0,17.955l0,4.782c0,0,0,0,0,0,0.197001,0,0.376002,0.0590004,0.541002,0.143001L0.541002,17.813C0.376002,17.896,0.197001,17.955,0,17.955c0,0,0,0,0,0z" id="path72"/>
 <path  fill="#33865f" stroke-width="1" d="m0,25.155l0,4.781c0,0,0,0,0,0,0.197001,0,0.376002,0.0590004,0.541002,0.143L0.541002,25.013C0.376002,25.097,0.197001,25.155,0,25.155c0,0,0,0,0,0z" id="path74"/>
 <path  fill="#33865f" stroke-width="1" d="m0,32.355l0,4.78c0,0,0,0,0,0,0.197001,0,0.376002,0.0589997,0.541002,0.143L0.541002,32.213C0.376002,32.296,0.197001,32.355,0,32.355c0,0,0,0,0,0z" id="path76"/>
 <path  fill="#33865f" stroke-width="1" d="m0,39.554l0,4.781c0,0,0,0,0,0,0.197001,0,0.376002,0.0590004,0.541002,0.143L0.541002,39.412C0.376002,39.495,0.197001,39.554,0,39.554c0,0,0,0,0,0z" id="path78"/>
 <path  fill="#33865f" stroke-width="1" d="m0,46.754l0,4.781c0,0,0,0,0,0,0.197001,0,0.376002,0.0590004,0.541002,0.143L0.541002,46.612C0.376002,46.695,0.197001,46.754,0,46.754c0,0,0,0,0,0z" id="path80"/>
 <path  fill="#33865f" stroke-width="1" d="m0,53.954l0,4.781c0,0,0,0,0,0,0.197001,0,0.376002,0.0590004,0.541002,0.143001L0.541002,53.812C0.376002,53.895,0.197001,53.954,0,53.954c0,0,0,0,0,0z" id="path82"/>
 <path  fill="#33865f" stroke-width="1" d="m0,61.154l0,4.781c0,0,0,0,0,0,0.197001,0,0.376002,0.0589997,0.541002,0.143L0.541002,61.012C0.376002,61.095,0.197001,61.154,0,61.154c0,0,0,0,0,0z" id="path84"/>
 <path  fill="#33865f" stroke-width="1" d="m0,68.354l0,4.781c0,0,0,0,0,0,0.197001,0,0.376002,0.0589968,0.541002,0.142999L0.541002,68.212C0.376002,68.295,0.197001,68.354,0,68.354c0,0,0,0,0,0z" id="path86"/>
 <path  fill="#33865f" stroke-width="1" d="m0,75.5539l0,4.781c0,0,0,0,0,0,0.197001,0,0.376002,0.059004,0.541002,0.143006l0,-5.06601c-0.165001,0.0830016,-0.344001,0.141998,-0.541002,0.141998,0,0,0,0,0,0z" id="path88"/>
 <path  fill="#33865f" stroke-width="1" d="m0,82.7539l0,4.78099c0,0,0,0,0,0,0.197001,0,0.376002,0.059004,0.541002,0.142999l0,-5.066c-0.165001,0.0830016,-0.344001,0.142006,-0.541002,0.142006,0,0,0,0,0,0z" id="path90"/>
 <path  fill="#33865f" stroke-width="1" d="m0,89.9539l0,4.78101c0,0,0,0,0,0,0.197001,0,0.376002,0.0589968,0.541002,0.142999l0,-5.066c-0.165001,0.0829944,-0.344001,0.141991,-0.541002,0.141991,0,0,0,0,0,0z" id="path92"/>
 <path  fill="#33865f" stroke-width="1" d="m0,97.1539l0,4.781c0,0,0,0,0,0,0.197001,0,0.376002,0.059004,0.541002,0.143006l0,-5.06601c-0.165001,0.0830088,-0.344001,0.142006,-0.541002,0.142006,0,0,0,0,0,0z" id="path94"/>
 <path  fill="#33865f" stroke-width="1" d="m0,104.354l0,4.78099c0,0,0,0,0,0,0.197001,0,0.376002,0.0589968,0.541002,0.142999l0,-5.066c-0.165001,0.0830016,-0.344001,0.142006,-0.541002,0.142006,0,0,0,0,0,0z" id="path96"/>
 <path  fill="#33865f" stroke-width="1" d="m0,111.554l0,4.78101c0,0,0,0,0,0,0.197001,0,0.376002,0.0589968,0.541002,0.142999l0,-5.066c-0.165001,0.0829944,-0.344001,0.141991,-0.541002,0.141991,0,0,0,0,0,0z" id="path98"/>
 <path  fill="#33865f" stroke-width="1" d="m0,118.754l0,4.781c0,0,0,0,0,0,0.197001,0,0.376002,0.059004,0.541002,0.142999l0,-5.066c-0.165001,0.0829944,-0.344001,0.141998,-0.541002,0.141998,0,0,0,0,0,0z" id="path100"/>
 <path  fill="#33865f" stroke-width="1" d="m0,125.954l0,4.781c0,0,0,0,0,0,0.197001,0,0.376002,0.0589968,0.541002,0.142999l0,-5.06601c-0.165001,0.0830016,-0.344001,0.142006,-0.541002,0.142006,0,0,0,0,0,0z" id="path102"/>
 <path  fill="#33865f" stroke-width="1" d="m0,133.154l0,4.78099c0,0,0,0,0,0,0.197001,0,0.376002,0.059004,0.541002,0.143006l0,-5.06601c-0.165001,0.0830088,-0.344001,0.142006,-0.541002,0.142006,0,0,0,0,0,0z" id="path104"/>
 <path  fill="#33865f" stroke-width="1" d="m0,140.354l0,4.78c0,0,0,0,0,0,0.197001,0,0.376002,0.059004,0.541002,0.143006l0,-5.065c-0.165001,0.0829944,-0.344001,0.141998,-0.541002,0.141998,0,0,0,0,0,0z" id="path106"/>
 <path  fill="#33865f" stroke-width="1" d="m0,10.754l0,4.782c0,0,0,0,0,0,0.197001,0,0.376002,0.0589997,0.541002,0.142999l0,-5.068C0.376002,10.695,0.197001,10.754,0,10.754c0,0,0,0,0,0z" id="path108"/>
 <path  fill="#33865f" stroke-width="1" d="m0.332001,149.904,0.417002,-0.416002c-0.128001,-0.127994,-0.208001,-0.304992,-0.208001,-0.500997l0,-1.576c-0.165001,0.0840024,-0.344001,0.142999,-0.541002,0.142999,0,0,0,1.55,0,1.55,0,0.310997,0.127001,0.595008,0.332001,0.799999z" id="path112"/>
 <ellipse  cx="13.6211" fill="none" rx="3.51901" ry="3.519" stroke-width="2" id="circle119" stroke="#fcee21" cy="144.428"/>
 <ellipse  cx="45.9062" fill="none" rx="3.51901" ry="3.519" stroke-width="2" id="circle125" stroke="#fcee21" cy="144.428"/>
 <ellipse  cx="13.6211" fill="none" rx="3.51901" ry="3.519" stroke-width="2" id="circle131" stroke="#fcee21" cy="11.478"/>
 <ellipse  cx="45.9062" fill="none" rx="3.51901" ry="3.519" stroke-width="2" id="circle137" stroke="#fcee21" cy="11.478"/>
 <rect  width="19.9741" fill="#30312e" x="19.7771" gorn="0.1.1.2" stroke-width="1" id="Pico_2040_1_" y="67.966" height="19.974"/>
 <path  fill="#363a44" stroke-width="1" d="M39.1182,17.009L20.4091,17.009c-0.313001,0,-0.567002,-0.254,-0.567002,-0.567L19.8421,2.506c0,-0.313,0.254001,-0.567,0.567002,-0.567L39.1182,1.939c0.313002,0,0.567003,0.254,0.567003,0.567L39.6852,16.442c0,0.313,-0.254001,0.567,-0.567003,0.567z" id="path145"/>
 <path  fill="#dbddda" stroke-width="1" d="m21.2631,0c-0.250001,0,-0.470002,0.164,-0.543003,0.403l-0.311001,1.03,-0.567002,0.567L20.1531,16.442c0,0.313,0.254001,0.567,0.567002,0.567l3.46002,0c0.157001,0,0.283002,-0.127,0.283002,-0.283l0,-0.828c0,-0.207,-0.113001,-0.398,-0.295001,-0.497L21.9311,14.349c-0.182001,-0.099,-0.295002,-0.290001,-0.295002,-0.497l0,-0.826999l1.25801,0l0,-0.955001l1.94401,0l0,0.952999l1.14401,0l0,1.971c0,0.313,0.254001,0.567,0.567002,0.567l0.920001,0l0,-1.022l4.58902,0l0,1.022l0.920001,0c0.313001,0,0.567003,-0.254,0.567003,-0.567l0,-1.971l1.14401,0l0,-0.952999l1.94401,0l0,0.952999l1.25801,0l0,0.826999c0,0.207,-0.113,0.398,-0.295001,0.497l-1.92601,1.053c-0.182001,0.0990007,-0.295001,0.290001,-0.295001,0.497l0,0.828c0,0.157,0.127001,0.283,0.283001,0.283L39.1182,17.008c0.313002,0,0.567003,-0.254,0.567003,-0.567L39.6852,2L39.1182,1.433,38.8072,0.403C38.7342,0.164,38.5142,0,38.2642,0Z" id="path147"/>
 <path  fill="#dbddda" stroke-width="1" d="m20.4641,2.883c-0.249001,-0.332,-0.502002,-0.667,-0.729003,-1.05,-0.232001,-0.379,-0.400002,-0.831,-0.481002,-1.254l-0.0020016,-0.013c-0.036,-0.184,0.0850003,-0.362,0.269001,-0.397,0.171001,-0.033,0.337002,0.07,0.388002,0.232,0.224001,0.723,0.738003,1.24,1.31201,1.827,0.195001,0.196,0.194001,0.514,-0.0020016,0.709,-0.196,0.195,-0.514002,0.194,-0.709002,0,-0.0150005,-0.015,-0.0330005,-0.0360001,-0.0460008,-0.052z" id="path151"/>
 <path  fill="#dbddda" stroke-width="1" d="m38.3072,2.228c0.575003,-0.587,1.088,-1.104,1.31201,-1.827,0.0560001,-0.179,0.246001,-0.279,0.425001,-0.223,0.166001,0.052,0.264002,0.22,0.233001,0.387l-0.0030024,0.014c-0.0820001,0.422,-0.249001,0.875,-0.481002,1.254,-0.227002,0.383,-0.480002,0.718,-0.729003,1.05,-0.166,0.221,-0.480002,0.266,-0.702003,0.1,-0.221001,-0.166,-0.266001,-0.48,-0.100001,-0.702,0.0120002,-0.017,0.0300002,-0.038,0.045,-0.0530001z" id="path153"/>
 <path  fill="#dbddda" stroke-width="1" d="M26.7801,105.979L19.4101,105.979c-0.313001,0,-0.567003,-0.254002,-0.567003,-0.567l0,-4.53501c0,-0.312991,0.254002,-0.567,0.567003,-0.567l7.37006,0c0.313001,0,0.567003,0.254009,0.567003,0.567l0,4.53501c0,0.312998,-0.254002,0.567,-0.567003,0.567z" id="path156"/>
 <g transform="rotate(90)">
  <rect  width="8.504" fill="#2a2d2e" x="54.2992" stroke-width="1" id="rect158" y="-21.8696" height="5.66902"/>
 </g>
 <g transform="rotate(90)">
  <rect  width="7.087" fill="#2a2d2e" x="31.8528" stroke-width="1" id="rect170" y="-41.3253" height="7.08703"/>
 </g>
 <g transform="rotate(90)">
  <rect  width="7.087" fill="#2a2d2e" x="19.5905" stroke-width="1" id="rect182" y="-48.7167" height="4.25202"/>
 </g>
 <g transform="rotate(90)">
  <rect  width="2.835" fill="#ecf6fd" x="17.0088" stroke-width="1" id="rect194" y="-15.7241" height="4.25202"/>
 </g>
 <path  fill="#cccccc" stroke-width="1" d="m16.0921,32.835l7.37006,0c0.313001,0,0.567003,0.254,0.567003,0.567l0,10.205c0,0.313,-0.254002,0.567,-0.567003,0.567L16.0921,44.174c-0.313001,0,-0.567003,-0.254,-0.567003,-0.567L15.5251,33.402c0,-0.313,0.254002,-0.567,0.567003,-0.567z" id="path206"/>
 <path  fill="#ffffff" stroke-width="1" d="m19.7771,33.544l0,0c1.95701,0,3.54302,1.586,3.54302,3.543l0,2.835c0,1.957,-1.58601,3.543,-3.54302,3.543l0,0c-1.95701,0,-3.54302,-1.586,-3.54302,-3.543l0,-2.835c0,-1.957,1.58601,-3.543,3.54302,-3.543z" id="path208"/>
 <path  fill="#ffffff" stroke-width="1" d="m15.5251,33.402l0,1.065c0,0.505,0.611003,0.758001,0.968004,0.401l1.065,-1.065c0.357002,-0.357,0.104,-0.967997,-0.401002,-0.967997l-1.065,0c-0.313001,0,-0.567003,0.254,-0.567003,0.567z" id="path210"/>
 <path  fill="#ffffff" stroke-width="1" d="m23.4621,32.835l-1.065,0c-0.505002,0,-0.758001,0.611,-0.401002,0.967997l1.065,1.065c0.357002,0.357,0.968004,0.104,0.968004,-0.401l0,-1.065c0,-0.313,-0.254002,-0.567,-0.567003,-0.567z" id="path212"/>
 <path  fill="#ffffff" stroke-width="1" d="m24.0291,43.577l0,-1.065c0,-0.505001,-0.611003,-0.758001,-0.968004,-0.401l-1.065,1.065c-0.357002,0.357,-0.104,0.967997,0.401002,0.967997l1.065,0c0.313001,0,0.567003,-0.254,0.567003,-0.567z" id="path214"/>
 <path  fill="#ffffff" stroke-width="1" d="m16.0921,44.144l1.065,0c0.505002,0,0.758001,-0.611,0.401002,-0.967997l-1.065,-1.065c-0.357002,-0.357,-0.968004,-0.104,-0.968004,0.401l0,1.065c0,0.313,0.254002,0.567,0.567003,0.567z" id="path216"/>
 <path  fill="#2a2d2e" stroke-width="1" d="m43.7562,38.373l0,-5.953c0,-0.313,0.254002,-0.567,0.567003,-0.567l4.53502,0c0.313001,0,0.567003,0.254,0.567003,0.567l0,5.953c0,0.313,-0.254002,0.567,-0.567003,0.567L44.3232,38.94c-0.313001,0,-0.567003,-0.254,-0.567003,-0.567z" id="path220"/>
 <ellipse  cx="12.9441" fill="#33cc33" rx="0.709003" ry="0.709" stroke-width="1" id="circle222" cy="18.502"/>
 <g transform="rotate(-90)">
  <rect  width="4.252" fill="#dbddda" x="-44.4468" stroke-width="1" id="rect224" y="34.9466" height="5.66902"/>
 </g>
 <rect  width="2.83501" fill="#dbddda" x="40.6162" stroke-width="1" id="rect236" height="5.669" y="47.934"/>
 <rect  width="2.83501" fill="#2a2d2e" x="40.6162" stroke-width="1" id="rect238" height="3.685" y="48.9271"/>
 <g transform="rotate(-90)">
  <rect  width="4.252" fill="#dbddda" x="-30.5199" stroke-width="1" id="rect240" y="34.9475" height="5.66902"/>
 </g>
 <g transform="rotate(-90)">
  <rect  width="4.252" fill="#958863" x="-30.5199" stroke-width="1" id="rect252" y="35.6556" height="4.25202"/>
 </g>
 <g transform="rotate(-90)">
  <rect  width="4.252" fill="#958863" x="-44.4468" stroke-width="1" id="rect264" y="35.6557" height="4.25202"/>
 </g>
 <ellipse  cx="13.4331" fill="#9a916c" rx="1.197" ry="1.197" stroke-width="1" id="circle276" cy="26.21"/>
 <ellipse  cx="46.8812" fill="#9a916c" rx="1.197" ry="1.197" stroke-width="1" id="circle278" cy="133.141"/>
 <g transform="rotate(90)">
  <rect  width="1.417" fill="#dbddda" x="25.5972" stroke-width="1" id="rect281" y="-23.2468" height="2.83501"/>
 </g>
 <g transform="rotate(90)">
  <rect  width="1.417" fill="#2a2d2e" x="25.5972" stroke-width="1" id="rect293" y="-22.8928" height="2.12601"/>
 </g>
 <g transform="scale(-1)">
  <rect  width="1.41701" fill="#dbddda" x="-48.4767" stroke-width="1" id="rect305" y="-64.9615" height="2.835"/>
 </g>
 <g transform="scale(-1)">
  <rect  width="1.41701" fill="#2a2d2e" x="-48.4767" stroke-width="1" id="rect317" y="-64.6075" height="2.126"/>
 </g>
 <g transform="scale(-1)">
  <rect  width="1.41701" fill="#dbddda" x="-48.4767" stroke-width="1" id="rect329" y="-64.9615" height="2.835"/>
 </g>
 <g transform="matrix(3.5185826e-8,-1,1,6.7873937e-6,0,0)">
  <rect  width="1.417" fill="#2a2d2e" x="-56.9039" stroke-width="1" id="rect341" y="45.9331" height="4.25202"/>
 </g>
 <g transform="scale(-1)">
  <rect  width="1.41701" fill="#2a2d2e" x="-48.4767" stroke-width="1" id="rect353" y="-64.6075" height="2.126"/>
 </g>
 <g transform="scale(-1)">
  <rect  width="1.41701" fill="#dbddda" x="-45.7679" stroke-width="1" id="rect365" y="-64.9615" height="2.835"/>
 </g>
 <g transform="scale(-1)">
  <rect  width="1.41701" fill="#2a2d2e" x="-45.7679" stroke-width="1" id="rect377" y="-64.6075" height="2.126"/>
 </g>
 <g transform="scale(-1)">
  <rect  width="1.41701" fill="#dbddda" x="-43.0592" stroke-width="1" id="rect389" y="-64.9615" height="2.835"/>
 </g>
 <g transform="scale(-1)">
  <rect  width="1.41701" fill="#9a916c" x="-43.0592" stroke-width="1" id="rect401" y="-64.6075" height="2.126"/>
 </g>
 <g transform="scale(-1)">
  <rect  width="1.063" fill="#dbddda" x="-34.1919" stroke-width="1" id="rect413" y="-64.6075" height="2.126"/>
 </g>
 <g transform="scale(-1)">
  <rect  width="1.063" fill="#2a2d2e" x="-34.1919" stroke-width="1" id="rect425" y="-64.2525" height="1.417"/>
 </g>
 <g transform="scale(-1)">
  <rect  width="1.063" fill="#dbddda" x="-32.1596" stroke-width="1" id="rect437" y="-64.6075" height="2.126"/>
 </g>
 <g transform="scale(-1)">
  <rect  width="1.063" fill="#2a2d2e" x="-32.1596" stroke-width="1" id="rect449" y="-64.2525" height="1.417"/>
 </g>
 <g transform="scale(-1)">
  <rect  width="1.063" fill="#dbddda" x="-30.1283" stroke-width="1" id="rect461" y="-64.6075" height="2.126"/>
 </g>
 <g transform="scale(-1)">
  <rect  width="1.063" fill="#9a916c" x="-30.1283" stroke-width="1" id="rect473" y="-64.2525" height="1.417"/>
 </g>
 <g transform="scale(-1)">
  <rect  width="1.063" fill="#dbddda" x="-47.1231" stroke-width="1" id="rect485" y="-51.0317" height="2.126"/>
 </g>
 <g transform="scale(-1)">
  <rect  width="1.063" fill="#9a916c" x="-47.1231" stroke-width="1" id="rect497" y="-50.6777" height="1.417"/>
 </g>
 <g transform="scale(-1)">
  <rect  width="1.063" fill="#dbddda" x="-28.097" stroke-width="1" id="rect509" y="-64.6075" height="2.126"/>
 </g>
 <g transform="scale(-1)">
  <rect  width="1.063" fill="#9a916c" x="-28.097" stroke-width="1" id="rect521" y="-64.2525" height="1.417"/>
 </g>
 <g transform="scale(-1)">
  <rect  width="1.063" fill="#dbddda" x="-17.2411" stroke-width="1" id="rect533" y="-52.8953" height="2.126"/>
 </g>
 <g transform="scale(-1)">
  <rect  width="1.063" fill="#9a916c" x="-17.2411" stroke-width="1" id="rect545" y="-52.5413" height="1.417"/>
 </g>
 <g transform="scale(-1)">
  <rect  width="1.063" fill="#dbddda" x="-32.1919" stroke-width="1" id="rect557" y="-93.7781" height="2.126"/>
 </g>
 <g transform="scale(-1)">
  <rect  width="1.063" fill="#9a916c" x="-32.1919" stroke-width="1" id="rect569" y="-93.4241" height="1.417"/>
 </g>
 <g transform="scale(-1)">
  <rect  width="1.063" fill="#dbddda" x="-30.1596" stroke-width="1" id="rect581" y="-93.7781" height="2.126"/>
 </g>
 <g transform="scale(-1)">
  <rect  width="1.063" fill="#9a916c" x="-30.1596" stroke-width="1" id="rect593" y="-93.4241" height="1.417"/>
 </g>
 <g transform="scale(-1)">
  <rect  width="1.063" fill="#dbddda" x="-30.1596" stroke-width="1" id="rect605" y="-102.435" height="2.126"/>
 </g>
 <g transform="scale(-1)">
  <rect  width="1.063" fill="#9a916c" x="-30.1596" stroke-width="1" id="rect617" y="-102.081" height="1.417"/>
 </g>
 <g transform="scale(-1)">
  <rect  width="1.063" fill="#dbddda" x="-16.8864" stroke-width="1" id="rect629" y="-105.979" height="2.126"/>
 </g>
 <g transform="scale(-1)">
  <rect  width="1.063" fill="#9a916c" x="-16.8864" stroke-width="1" id="rect641" y="-105.625" height="1.417"/>
 </g>
 <g transform="scale(-1)">
  <rect  width="1.41701" fill="#dbddda" x="-39.2006" stroke-width="1" id="rect653" y="-64.9615" height="2.835"/>
 </g>
 <g transform="scale(-1)">
  <rect  width="1.41701" fill="#9a916c" x="-39.2006" stroke-width="1" id="rect665" y="-64.6075" height="2.126"/>
 </g>
 <g transform="scale(-1)">
  <rect  width="1.41701" fill="#dbddda" x="-36.4918" stroke-width="1" id="rect677" y="-64.9615" height="2.835"/>
 </g>
 <g transform="scale(-1)">
  <rect  width="1.41701" fill="#9a916c" x="-36.4918" stroke-width="1" id="rect689" y="-64.6075" height="2.126"/>
 </g>
 <g transform="rotate(90)">
  <rect  width="1.417" fill="#dbddda" x="23.134" stroke-width="1" id="rect701" y="-23.2465" height="2.83501"/>
 </g>
 <g transform="rotate(90)">
  <rect  width="1.417" fill="#2a2d2e" x="23.134" stroke-width="1" id="rect713" y="-22.8925" height="2.12601"/>
 </g>
 <g transform="rotate(90)">
  <rect  width="1.417" fill="#dbddda" x="23.1335" stroke-width="1" id="rect725" y="-39.199" height="2.83501"/>
 </g>
 <g transform="rotate(90)">
  <rect  width="1.417" fill="#2a2d2e" x="23.1335" stroke-width="1" id="rect737" y="-38.845" height="2.12601"/>
 </g>
 <g transform="scale(-1)">
  <rect  width="1.41701" fill="#dbddda" x="-14.8406" stroke-width="1" id="rect749" y="-57.1345" height="2.835"/>
 </g>
 <g transform="scale(-1)">
  <rect  width="1.41701" fill="#2a2d2e" x="-14.8406" stroke-width="1" id="rect761" y="-56.7794" height="2.126"/>
 </g>
 <g transform="scale(-1)">
  <rect  width="1.41701" fill="#dbddda" x="-14.8406" stroke-width="1" id="rect773" y="-62.803" height="2.835"/>
 </g>
 <g transform="scale(-1)">
  <rect  width="1.41701" fill="#2a2d2e" x="-14.8406" stroke-width="1" id="rect785" y="-62.449" height="2.126"/>
 </g>
 <g transform="scale(-1)">
  <rect  width="1.41701" fill="#dbddda" x="-49.8348" stroke-width="1" id="rect797" y="-50.7696" height="2.835"/>
 </g>
 <g transform="scale(-1)">
  <rect  width="1.41701" fill="#2a2d2e" x="-49.8348" stroke-width="1" id="rect809" y="-50.4146" height="2.126"/>
 </g>
 <g transform="rotate(90.000021)">
  <rect  width="1.063" fill="#dbddda" x="69.1194" stroke-width="1" id="rect821" y="-43.5034" height="2.12601"/>
 </g>
 <g transform="rotate(90.000021)">
  <rect  width="1.063" fill="#9a916c" x="69.1194" stroke-width="1" id="rect833" y="-43.1494" height="1.41701"/>
 </g>
 <g transform="rotate(90.000021)">
  <rect  width="1.063" fill="#dbddda" x="70.2126" stroke-width="1" id="rect845" y="-17.95" height="2.12601"/>
 </g>
 <g transform="rotate(90.000021)">
  <rect  width="1.063" fill="#9a916c" x="70.2126" stroke-width="1" id="rect857" y="-17.595" height="1.41701"/>
 </g>
 <g transform="rotate(90.000021)">
  <rect  width="1.063" fill="#dbddda" x="80.7171" stroke-width="1" id="rect869" y="-17.9495" height="2.12601"/>
 </g>
 <g transform="rotate(90.000021)">
  <rect  width="1.063" fill="#9a916c" x="80.7171" stroke-width="1" id="rect881" y="-17.5955" height="1.41701"/>
 </g>
 <g transform="matrix(-0.70710824,0.70710532,-0.70710824,-0.70710532,0,0)">
  <rect  width="1.06299" fill="#dbddda" x="27.2308" stroke-width="0.999992" id="rect893" y="-89.5687" height="2.12598"/>
 </g>
 <g transform="matrix(-0.70710824,0.70710532,-0.70710824,-0.70710532,0,0)">
  <rect  width="1.06299" fill="#9a916c" x="27.2308" stroke-width="0.999992" id="rect905" y="-89.2146" height="1.41699"/>
 </g>
 <g transform="rotate(-89.999979)">
  <rect  width="1.417" fill="#dbddda" x="-79.8562" stroke-width="1" id="rect917" y="45.4059" height="2.83501"/>
 </g>
 <g transform="rotate(-89.999979)">
  <rect  width="1.417" fill="#2a2d2e" x="-79.8562" stroke-width="1" id="rect929" y="45.7609" height="2.12601"/>
 </g>
 <g transform="rotate(-89.999979)">
  <rect  width="1.417" fill="#dbddda" x="-79.8562" stroke-width="1" id="rect941" y="45.4059" height="2.83501"/>
 </g>
 <g transform="rotate(-89.999979)">
  <rect  width="1.417" fill="#2a2d2e" x="-79.8562" stroke-width="1" id="rect953" y="45.7609" height="2.12601"/>
 </g>
 <g transform="rotate(-89.999979)">
  <rect  width="1.417" fill="#dbddda" x="-77.1474" stroke-width="1" id="rect965" y="45.4068" height="2.83501"/>
 </g>
 <g transform="rotate(-89.999979)">
  <rect  width="1.417" fill="#2a2d2e" x="-77.1474" stroke-width="1" id="rect977" y="45.7608" height="2.12601"/>
 </g>
 <g transform="rotate(-89.999978)">
  <rect  width="1.417" fill="#dbddda" x="-68.9201" stroke-width="1" id="rect989" y="14.761" height="2.83501"/>
 </g>
 <g transform="rotate(-89.999978)">
  <rect  width="1.417" fill="#9a916c" x="-68.9201" stroke-width="1" id="rect1001" y="15.115" height="2.12601"/>
 </g>
 <g transform="rotate(-89.999979)">
  <rect  width="1.417" fill="#dbddda" x="-98.0622" stroke-width="1" id="rect1013" y="24.9173" height="2.83501"/>
 </g>
 <g transform="rotate(-89.999979)">
  <rect  width="1.417" fill="#2a2d2e" x="-98.0622" stroke-width="1" id="rect1025" y="25.2713" height="2.12601"/>
 </g>
 <g transform="rotate(-89.999979)">
  <rect  width="1.417" fill="#dbddda" x="-98.0622" stroke-width="1" id="rect1037" y="24.9173" height="2.83501"/>
 </g>
 <g transform="rotate(-89.999979)">
  <rect  width="1.417" fill="#2a2d2e" x="-98.0622" stroke-width="1" id="rect1049" y="25.2713" height="2.12601"/>
 </g>
 <path  fill="#ffffff" stroke-width="1" d="m38.4262,121.828,-0.206001,-0.309996c0,-2.374,-1.084,-3.303,-2.37401,-4.025,0.361001,-0.102996,0.774,-0.205999,0.877003,-0.670997,0.671002,-0.155002,0.774,-0.464004,0.877003,-0.774,0.155,-0.103003,0.774,-0.464004,0.671002,-0.981,0.310002,-0.205999,0.516002,-0.516002,0.413002,-0.929001,0.361001,-0.361001,0.464002,-0.671004,0.310001,-0.981,0.413002,-0.516002,0.258001,-0.774,0.0520005,-1.084,0.310001,-0.568001,0.0520005,-1.187,-0.826005,-1.084,-0.361002,-0.515995,-1.084,-0.412999,-1.239,-0.412999,-0.155001,-0.155002,-0.310002,-0.309996,-0.826005,-0.257998,-0.361001,-0.310003,-0.723002,-0.257998,-1.13501,-0.102996,-0.464002,-0.361008,-0.774,-0.0520056,-1.13501,0.0519912,-0.568002,-0.205992,-0.723002,0.0520056,-0.981007,0.155009,-0.619003,-0.155009,-0.826005,0.155002,-1.13501,0.463997l-0.361001,0c-0.929001,0.568001,-1.39301,1.651,-1.60001,2.219,-0.155001,-0.568008,-0.619003,-1.70301,-1.60001,-2.219l-0.361001,0c-0.310001,-0.310003,-0.464002,-0.568001,-1.13501,-0.463997,-0.258001,-0.103003,-0.413001,-0.361001,-0.981007,-0.155009,-0.258001,-0.0519912,-0.464002,-0.205992,-0.723002,-0.205992l0,0c-0.155001,0,-0.258001,0.0519984,-0.464002,0.154994,-0.413002,-0.154994,-0.774,-0.205999,-1.13501,0.103003,-0.516002,-0.0520056,-0.723002,0.0519984,-0.826005,0.258005,-0.103,0,-0.877003,-0.103003,-1.239,0.412999,-0.877003,-0.103003,-1.13501,0.515995,-0.826005,1.084,-0.155001,0.257998,-0.361001,0.515995,0.0519998,1.084,-0.155001,0.310003,-0.0519998,0.619005,0.310002,0.981007,-0.103,0.412999,0.103,0.670997,0.413001,0.928994,-0.0519998,0.568001,0.516002,0.877003,0.671003,0.981,0.0520005,0.310003,0.206001,0.619005,0.877003,0.774007,0.103,0.463997,0.516002,0.567993,0.877003,0.670997,-1.29001,0.723002,-2.37401,1.703,-2.37401,4.025l-0.206001,0.310003c-1.445,0.876996,-2.78701,3.664,-0.723002,5.98599,0.155001,0.723009,0.361002,1.239,0.568003,1.806,0.310001,2.27099,2.27101,3.354,2.78701,3.509,0.774,0.568001,1.54801,1.084,2.63201,1.497,1.032,1.032,2.11601,1.445,3.25101,1.445l0.0519998,0c1.13501,0,2.21901,-0.412999,3.25101,-1.445,1.084,-0.361001,1.90901,-0.929001,2.63201,-1.497,0.516002,-0.103003,2.47701,-1.18699,2.78701,-3.509,0.206001,-0.568001,0.413002,-1.084,0.568003,-1.806,2.26901,-2.323,0.979005,-5.11,-0.517002,-5.987zm-1.084,-0.412999c-0.0520005,0.929001,-5.00602,-3.30299,-4.18002,-3.45799,2.32201,-0.361001,4.23201,0.981,4.18002,3.45799zm-2.21901,4.696c-1.239,0.825998,-3.04501,0.309996,-3.97402,-1.135,-0.981007,-1.445,-0.723002,-3.251,0.516002,-4.077,1.239,-0.825998,3.04502,-0.310003,3.97402,1.135,0.980006,1.49699,0.722001,3.303,-0.516002,4.077zm-3.40602,-14.605c0.0520005,0.205999,0.103001,0.361001,0.155001,0.361001,0.258001,-0.309996,0.516002,-0.618998,0.826005,-0.876996,0,0.154994,-0.103001,0.360994,0.103,0.463997,0.206001,-0.258005,0.464002,-0.463997,0.774,-0.671004,-0.155001,0.258005,-0.0520005,0.361008,0.0519998,0.464004,0.258001,-0.205999,0.516002,-0.464004,0.981007,-0.618998,-0.155,0.154994,-0.310001,0.309996,-0.103,0.516002,0.258001,-0.155009,0.516002,-0.310003,1.18701,-0.464011,-0.155001,0.155009,-0.464002,0.31001,-0.258001,0.464011,0.361001,-0.103003,0.723002,-0.206006,1.13501,-0.258005,-0.206001,0.155002,-0.361001,0.309996,-0.206001,0.464004,0.361001,-0.103003,0.877003,-0.258005,1.34201,-0.155002l-0.310002,0.309996c-0.0519998,0.0520056,0.723002,0.0520056,1.18701,0.0520056,-0.155001,0.25799,-0.361002,0.515995,-0.464002,0.928994,0.0520005,0.0520056,0.310002,0,0.516002,0,-0.258001,0.516002,-0.671002,0.619005,-0.723002,0.825998,0.155001,0.103003,0.361001,0.103003,0.568002,0,-0.155,0.361008,-0.516002,0.568001,-0.826005,0.877003,0.0520005,0.0519984,0.206001,0.103003,0.516002,0.0519984,-0.258001,0.258005,-0.568003,0.516002,-0.929001,0.774,0.0520005,0.0520056,0.310002,0.0520056,0.516002,0.103003,-0.361001,0.309996,-0.774,0.516002,-1.18701,0.722995,0.206001,0.155009,0.361001,0.103003,0.516002,0.103003,-0.310002,0.258005,-0.774,0.361008,-1.239,0.516002,0.103,0.155002,0.155,0.155002,0.361001,0.205999,-0.464002,0.257998,-1.18701,0.155002,-1.39301,0.257998,0.0519998,0.155002,0.155,0.205999,0.361001,0.310003,-0.774,0.0519984,-2.89001,-0.0519984,-3.30301,-1.651,0.774,-0.87701,2.27101,-1.90901,4.74802,-3.148,-1.96101,0.670997,-3.71601,1.497,-5.16102,2.73501,-1.80701,-0.825005,-0.620003,-2.83801,0.258001,-3.66401zm-1.75501,5.832l0,0c1.239,0,2.73501,0.877003,2.73501,1.75501,0,0.773993,-1.084,1.393,-2.73501,1.342,-1.651,0,-2.73501,-0.774007,-2.73501,-1.497,0,-0.620006,1.34201,-1.652,2.73501,-1.60001zm-6.24403,-0.670997c0.206001,-0.0519984,0.258001,-0.0519984,0.361001,-0.205999,-0.464002,-0.155002,-0.929001,-0.258005,-1.239,-0.516002,0.155001,0,0.310002,0.0519984,0.516002,-0.102996,-0.413002,-0.206006,-0.826005,-0.412999,-1.18701,-0.723009,0.206001,0,0.464002,0,0.516002,-0.102989,-0.361001,-0.206006,-0.671002,-0.464004,-0.929001,-0.774007,0.310001,0.0520056,0.413002,0,0.516002,-0.0519984,-0.258001,-0.310003,-0.619003,-0.516002,-0.826005,-0.876996,0.206001,0.0519984,0.413002,0.102996,0.568003,0,-0.103,-0.206006,-0.516002,-0.361008,-0.723002,-0.825998,0.206001,0,0.464002,0.0519912,0.516002,0,-0.103001,-0.413006,-0.310002,-0.671004,-0.464002,-0.929009,0.516002,0,1.239,0,1.18701,-0.0519984l-0.310002,-0.310003c0.464002,-0.102996,0.981007,0,1.34201,0.155002,0.155001,-0.102996,0,-0.257998,-0.206001,-0.463997,0.413002,0.0519984,0.774,0.154994,1.13501,0.257998,0.155001,-0.154994,-0.103,-0.309996,-0.258001,-0.463997,0.619003,0.102996,0.929001,0.309996,1.18701,0.463997,0.206001,-0.205999,0,-0.361001,-0.103001,-0.516002,0.464002,0.155002,0.723002,0.412999,0.981007,0.619005,0.103,-0.103003,0.206001,-0.206006,0.0519998,-0.464004,0.361001,0.206006,0.619003,0.412999,0.774,0.671004,0.206001,-0.155002,0.103,-0.310003,0.103,-0.464004,0.361001,0.258005,0.568003,0.568001,0.826005,0.877003,0.0519998,-0.0519984,0.103,-0.155002,0.155,-0.361001,0.826005,0.825998,2.01301,2.838,0.310002,3.613,-1.445,-1.18701,-3.20002,-2.064,-5.16102,-2.73501,2.47701,1.29,3.97402,2.27101,4.74802,3.148,-0.413002,1.6,-2.52901,1.703,-3.30301,1.651,0.155001,-0.0519984,0.310002,-0.155002,0.361002,-0.309996,-0.258001,-0.0519984,-0.929001,0.0509976,-1.445,-0.207zm3.04402,1.238c0.877003,0.155002,-4.07702,4.387,-4.18002,3.458,-0.0509997,-2.477,1.85801,-3.81899,4.18002,-3.458zm-5.21202,9.44503c-1.18701,-0.929009,-1.60001,-3.71601,0.619003,-5.00601,1.34201,-0.309996,0.465002,5.522,-0.619003,5.00601zm4.59302,5.006c-0.671003,0.412999,-2.32201,0.25799,-3.50901,-1.39301,-0.774,-1.393,-0.671003,-2.787,-0.155001,-3.2,0.826005,-0.516002,2.11601,0.154994,3.09601,1.28999,0.878004,0.980006,1.291,2.786,0.568003,3.30301zm-1.34201,-6.09c-1.239,-0.825998,-1.445,-2.632,-0.516002,-4.077,0.981007,-1.445,2.73501,-1.961,3.97402,-1.135,1.239,0.825998,1.445,2.632,0.516002,4.077,-0.929001,1.445,-2.73501,1.961,-3.97402,1.135zm5.16102,8.928c-1.49701,0.0519984,-2.94201,-1.187,-2.94201,-1.651,0,-0.618991,1.806,-1.135,2.99301,-1.135,1.18701,-0.0519912,2.83801,0.361008,2.83801,0.981,0.0529999,0.566006,-1.444,1.805,-2.88901,1.805zm2.99301,-6.348c0,1.497,-1.34201,2.73501,-2.99301,2.73501,-1.651,0,-2.99301,-1.18701,-2.99301,-2.73501,0,0,0,0,0,-0.0519984,0,-1.497,1.34201,-2.73501,2.99301,-2.73501,1.65101,0.0520056,2.99301,1.239,2.99301,2.787zm4.18002,2.168c-1.29,1.75501,-2.99301,1.806,-3.66401,1.34201,-0.671003,-0.619005,-0.155001,-2.58,0.774,-3.66401l0,0c1.084,-1.187,2.21901,-1.961,2.99301,-1.34199,0.517002,0.515995,0.826005,2.47699,-0.103001,3.66399zm1.13601,-3.716c-1.084,0.463997,-1.96101,-5.316,-0.619003,-5.006,2.21901,1.29,1.85701,4.07701,0.619003,5.006z" id="path1062"/>
 <rect  width="59.5282" fill="none" x="0" stroke-width="1" id="rect1066" height="3.374" y="139.522"/>
 <g transform="scale(1.0000021,0.99999791)">
  <text  fill="#ffffff" x="23.4268" font-size="2.80001" font-family="DroidSans" stroke-width="1" id="text1068" y="142.183">D</text>
 </g>
 <g transform="scale(1.0000021,0.99999791)">
  <text  fill="#ffffff" x="26.1714" font-size="2.80001" font-family="DroidSans" stroke-width="1" id="text1080" y="142.183">E</text>
 </g>
 <g transform="scale(1.0000021,0.99999791)">
  <text  fill="#ffffff" x="28.3692" font-size="2.80001" font-family="DroidSans" stroke-width="1" id="text1092" y="142.183">B</text>
 </g>
 <g transform="scale(1.0000021,0.99999791)">
  <text  fill="#ffffff" x="30.8926" font-size="2.80001" font-family="DroidSans" stroke-width="1" id="text1104" y="142.183">U</text>
 </g>
 <g transform="scale(1.0000021,0.99999791)">
  <text  fill="#ffffff" x="33.6865" font-size="2.80001" font-family="DroidSans" stroke-width="1" id="text1116" y="142.183">G</text>
 </g>
 <g transform="matrix(0,-0.99999791,1.0000021,0,0,0)">
  <text  fill="#ffffff" x="-47.343" font-size="2.80001" font-family="DroidSans" stroke-width="1" id="text1128" y="13.598">B</text>
 </g>
 <g transform="matrix(0,-0.99999791,1.0000021,0,0,0)">
  <text  fill="#ffffff" x="-44.8191" font-size="2.80001" font-family="DroidSans" stroke-width="1" id="text1140" y="13.598">O</text>
 </g>
 <g transform="matrix(0,-0.99999791,1.0000021,0,0,0)">
  <text  fill="#ffffff" x="-41.8714" font-size="2.80001" font-family="DroidSans" stroke-width="1" id="text1152" y="13.598">O</text>
 </g>
 <g transform="matrix(0,-0.99999791,1.0000021,0,0,0)">
  <text  fill="#ffffff" x="-39.0281" font-size="2.80001" font-family="DroidSans" stroke-width="1" id="text1164" y="13.598">T</text>
 </g>
 <g transform="matrix(0,-0.99999791,1.0000021,0,0,0)">
  <text  fill="#ffffff" x="-36.8958" font-size="2.80001" font-family="DroidSans" stroke-width="1" id="text1176" y="13.598">S</text>
 </g>
 <g transform="matrix(0,-0.99999791,1.0000021,0,0,0)">
  <text  fill="#ffffff" x="-34.7292" font-size="2.80001" font-family="DroidSans" stroke-width="1" id="text1188" y="13.598">E</text>
 </g>
 <g transform="matrix(0,-0.99999791,1.0000021,0,0,0)">
  <text  fill="#ffffff" x="-32.5315" font-size="2.80001" font-family="DroidSans" stroke-width="1" id="text1200" y="13.598">L</text>
 </g>
 <g transform="scale(1.0000021,0.99999791)">
  <text  fill="#ffffff" x="10.0925" font-size="2.80001" font-family="DroidSans" stroke-width="1" id="text1212" y="23.1334">L</text>
 </g>
 <g transform="scale(1.0000021,0.99999791)">
  <text  fill="#ffffff" x="12.1619" font-size="2.80001" font-family="DroidSans" stroke-width="1" id="text1224" y="23.1334">E</text>
 </g>
 <g transform="scale(1.0000021,0.99999791)">
  <text  fill="#ffffff" x="14.3596" font-size="2.80001" font-family="DroidSans" stroke-width="1" id="text1236" y="23.1334">D</text>
 </g>
 <g transform="scale(1.0000021,0.99999791)">
  <text  fill="#ffffff" x="6.94901" font-size="2.80001" font-family="DroidSans" stroke-width="1" id="text1248" y="10.7411">1</text>
 </g>
 <g transform="scale(1.0000021,0.99999791)">
  <text  fill="#ffffff" x="6.94901" font-size="2.80001" font-family="DroidSans" stroke-width="1" id="text1260" y="17.9422">2</text>
 </g>
 <g transform="scale(1.0000021,0.99999791)">
  <text  fill="#ffffff" x="48.4302" font-size="2.80001" font-family="DroidSans" stroke-width="1" id="text1272" y="17.9422">3</text>
 </g>
 <g transform="scale(1.0000021,0.99999791)">
  <text  fill="#ffffff" x="50.7081" font-size="2.80001" font-family="DroidSans" stroke-width="1" id="text1284" y="17.9422">9</text>
 </g>
 <g transform="scale(1.0000021,0.99999791)">
  <text  fill="#ffffff" x="26.0218" font-size="2.80001" font-family="DroidSans" stroke-width="1" id="text1296" y="23.1334">U</text>
 </g>
 <g transform="scale(1.0000021,0.99999791)">
  <text  fill="#ffffff" x="28.8157" font-size="2.80001" font-family="DroidSans" stroke-width="1" id="text1308" y="23.1334">S</text>
 </g>
 <g transform="scale(1.0000021,0.99999791)">
  <text  fill="#ffffff" x="30.9827" font-size="2.80001" font-family="DroidSans" stroke-width="1" id="text1320" y="23.1334">B</text>
 </g>
 <rect  width="6.27003" fill="none" x="8.32803" stroke-width="1" id="rect1332" height="89.487" y="48.42"/>
 <g transform="matrix(0,-0.99999791,1.0000021,0,0,0)">
  <text  fill="#ffffff" x="-137.906" font-size="4.00001" font-family="DroidSans" stroke-width="1" id="text1334" y="12.6135">R</text>
 </g>
 <g transform="matrix(0,-0.99999791,1.0000021,0,0,0)">
  <text  fill="#ffffff" x="-134.207" font-size="4.00001" font-family="DroidSans" stroke-width="1" id="text1346" y="12.6135">a</text>
 </g>
 <g transform="matrix(0,-0.99999791,1.0000021,0,0,0)">
  <text  fill="#ffffff" x="-130.803" font-size="4.00001" font-family="DroidSans" stroke-width="1" id="text1358" y="12.6135">s</text>
 </g>
 <g transform="matrix(0,-0.99999791,1.0000021,0,0,0)">
  <text  fill="#ffffff" x="-127.797" font-size="4.00001" font-family="DroidSans" stroke-width="1" id="text1370" y="12.6135">p</text>
 </g>
 <g transform="matrix(0,-0.99999791,1.0000021,0,0,0)">
  <text  fill="#ffffff" x="-124.118" font-size="4.00001" font-family="DroidSans" stroke-width="1" id="text1382" y="12.6135">b</text>
 </g>
 <g transform="matrix(0,-0.99999791,1.0000021,0,0,0)">
  <text  fill="#ffffff" x="-120.438" font-size="4.00001" font-family="DroidSans" stroke-width="1" id="text1394" y="12.6135">e</text>
 </g>
 <g transform="matrix(0,-0.99999791,1.0000021,0,0,0)">
  <text  fill="#ffffff" x="-117.012" font-size="4.00001" font-family="DroidSans" stroke-width="1" id="text1406" y="12.6135">r</text>
 </g>
 <g transform="matrix(0,-0.99999791,1.0000021,0,0,0)">
  <text  fill="#ffffff" x="-114.267" font-size="4.00001" font-family="DroidSans" stroke-width="1" id="text1418" y="12.6135">r</text>
 </g>
 <g transform="matrix(0,-0.99999791,1.0000021,0,0,0)">
  <text  fill="#ffffff" x="-111.523" font-size="4.00001" font-family="DroidSans" stroke-width="1" id="text1430" y="12.6135">y</text>
 </g>
 <g transform="matrix(0,-0.99999791,1.0000021,0,0,0)">
  <text  fill="#ffffff" x="-108.329" font-size="4.00001" font-family="DroidSans" stroke-width="1" id="text1442" y="12.6135"/>
 </g>
 <g transform="matrix(0,-0.99999791,1.0000021,0,0,0)">
  <text  fill="#ffffff" x="-106.28" font-size="4.00001" font-family="DroidSans" stroke-width="1" id="text1454" y="12.6135">P</text>
 </g>
 <g transform="matrix(0,-0.99999791,1.0000021,0,0,0)">
  <text  fill="#ffffff" x="-102.649" font-size="4.00001" font-family="DroidSans" stroke-width="1" id="text1466" y="12.6135">i</text>
 </g>
 <g transform="matrix(0,-0.99999791,1.0000021,0,0,0)">
  <text  fill="#ffffff" x="-100.605" font-size="4.00001" font-family="DroidSans" stroke-width="1" id="text1478" y="12.6135"/>
 </g>
 <g transform="matrix(0,-0.99999791,1.0000021,0,0,0)">
  <text  fill="#ffffff" x="-98.5565" font-size="4.00001" font-family="DroidSans" stroke-width="1" id="text1490" y="12.6135">P</text>
 </g>
 <g transform="matrix(0,-0.99999791,1.0000021,0,0,0)">
  <text  fill="#ffffff" x="-94.9257" font-size="4.00001" font-family="DroidSans" stroke-width="1" id="text1502" y="12.6135">i</text>
 </g>
 <g transform="matrix(0,-0.99999791,1.0000021,0,0,0)">
  <text  fill="#ffffff" x="-92.8816" font-size="4.00001" font-family="DroidSans" stroke-width="1" id="text1514" y="12.6135">c</text>
 </g>
 <g transform="matrix(0,-0.99999791,1.0000021,0,0,0)">
  <text  fill="#ffffff" x="-89.8172" font-size="4.00001" font-family="DroidSans" stroke-width="1" id="text1526" y="12.6135">o</text>
 </g>
 <g transform="matrix(0,-0.99999791,1.0000021,0,0,0)">
  <text  fill="#ffffff" x="-86.1814" font-size="4.00001" font-family="DroidSans" stroke-width="1" id="text1538" y="12.6135"/>
 </g>
 <g transform="matrix(0,-0.99999791,1.0000021,0,0,0)">
  <text  fill="#ffffff" x="-84.1327" font-size="4.00001" font-family="DroidSans" stroke-width="1" id="text1550" y="12.6135">&#xa9;</text>
 </g>
 <g transform="matrix(0,-0.99999791,1.0000021,0,0,0)">
  <text  fill="#ffffff" x="-79.2224" font-size="4.00001" font-family="DroidSans" stroke-width="1" id="text1562" y="12.6135">2</text>
 </g>
 <g transform="matrix(0,-0.99999791,1.0000021,0,0,0)">
  <text  fill="#ffffff" x="-75.7187" font-size="4.00001" font-family="DroidSans" stroke-width="1" id="text1574" y="12.6135">0</text>
 </g>
 <g transform="matrix(0,-0.99999791,1.0000021,0,0,0)">
  <text  fill="#ffffff" x="-72.2146" font-size="4.00001" font-family="DroidSans" stroke-width="1" id="text1586" y="12.6135">2</text>
 </g>
 <g transform="matrix(0,-0.99999791,1.0000021,0,0,0)">
  <text  fill="#ffffff" x="-68.7107" font-size="4.00001" font-family="DroidSans" stroke-width="1" id="text1598" y="12.6135">0</text>
 </g>
 <g transform="scale(1.0000021,0.99999791)">
  <text  fill="#3d3f38" x="21.4314" font-size="1.76" font-family="'Droid Sans'" stroke-width="1" id="text1610" y="84.0241">R</text>
 </g>
 <g transform="scale(1.0000021,0.99999791)">
  <text  fill="#3d3f38" x="22.8191" font-size="1.76" font-family="'Droid Sans'" stroke-width="1" id="text1622" y="84.0241">P</text>
 </g>
 <g transform="scale(1.0000021,0.99999791)">
  <text  fill="#3d3f38" x="24.2581" font-size="1.76" font-family="'Droid Sans'" stroke-width="1" id="text1634" y="84.0241">2</text>
 </g>
 <g transform="scale(1.0000021,0.99999791)">
  <text  fill="#3d3f38" x="25.5643" font-size="1.76" font-family="'Droid Sans'" stroke-width="1" id="text1646" y="84.0241">-</text>
 </g>
 <g transform="scale(1.0000021,0.99999791)">
  <text  fill="#3d3f38" x="26.3299" font-size="1.76" font-family="'Droid Sans'" stroke-width="1" id="text1658" y="84.0241">8</text>
 </g>
 <g transform="scale(1.0000021,0.99999791)">
  <text  fill="#3d3f38" x="27.6361" font-size="1.76" font-family="'Droid Sans'" stroke-width="1" id="text1670" y="84.0241">0</text>
 </g>
 <g transform="scale(1.0000021,0.99999791)">
  <text  fill="#3d3f38" x="28.9418" font-size="1.76" font-family="'Droid Sans'" stroke-width="1" id="text1682" y="84.0241"/>
 </g>
 <g transform="scale(1.0000021,0.99999791)">
  <text  fill="#3d3f38" x="29.6659" font-size="1.76" font-family="'Droid Sans'" stroke-width="1" id="text1694" y="84.0241"/>
 </g>
 <g transform="scale(1.0000021,0.99999791)">
  <text  fill="#3d3f38" x="30.3895" font-size="1.76" font-family="'Droid Sans'" stroke-width="1" id="text1706" y="84.0241"/>
 </g>
 <g transform="scale(1.0000021,0.99999791)">
  <text  fill="#3d3f38" x="31.1136" font-size="1.76" font-family="'Droid Sans'" stroke-width="1" id="text1718" y="84.0241"/>
 </g>
 <g transform="scale(1.0000021,0.99999791)">
  <text  fill="#3d3f38" x="31.8378" font-size="1.76" font-family="'Droid Sans'" stroke-width="1" id="text1730" y="84.0241">2</text>
 </g>
 <g transform="scale(1.0000021,0.99999791)">
  <text  fill="#3d3f38" x="33.1434" font-size="1.76" font-family="'Droid Sans'" stroke-width="1" id="text1742" y="84.0241">0</text>
 </g>
 <g transform="scale(1.0000021,0.99999791)">
  <text  fill="#3d3f38" x="34.4496" font-size="1.76" font-family="'Droid Sans'" stroke-width="1" id="text1754" y="84.0241">/</text>
 </g>
 <g transform="scale(1.0000021,0.99999791)">
  <text  fill="#3d3f38" x="35.4847" font-size="1.76" font-family="'Droid Sans'" stroke-width="1" id="text1766" y="84.0241">2</text>
 </g>
 <g transform="scale(1.0000021,0.99999791)">
  <text  fill="#3d3f38" x="36.7909" font-size="1.76" font-family="'Droid Sans'" stroke-width="1" id="text1778" y="84.0241">1</text>
 </g>
 <g transform="scale(1.0000021,0.99999791)">
  <text  fill="#3d3f38" x="21.4021" font-size="1.76" font-family="'Droid Sans'" stroke-width="1" id="text1790" y="86.524">P</text>
 </g>
 <g transform="scale(1.0000021,0.99999791)">
  <text  fill="#3d3f38" x="22.8416" font-size="1.76" font-family="'Droid Sans'" stroke-width="1" id="text1802" y="86.524">6</text>
 </g>
 <g transform="scale(1.0000021,0.99999791)">
  <text  fill="#3d3f38" x="24.1472" font-size="1.76" font-family="'Droid Sans'" stroke-width="1" id="text1814" y="86.524">4</text>
 </g>
 <g transform="scale(1.0000021,0.99999791)">
  <text  fill="#3d3f38" x="25.4535" font-size="1.76" font-family="'Droid Sans'" stroke-width="1" id="text1826" y="86.524">M</text>
 </g>
 <g transform="scale(1.0000021,0.99999791)">
  <text  fill="#3d3f38" x="27.3348" font-size="1.76" font-family="'Droid Sans'" stroke-width="1" id="text1838" y="86.524">1</text>
 </g>
 <g transform="scale(1.0000021,0.99999791)">
  <text  fill="#3d3f38" x="28.641" font-size="1.76" font-family="'Droid Sans'" stroke-width="1" id="text1850" y="86.524">5</text>
 </g>
 <g transform="scale(1.0000021,0.99999791)">
  <text  fill="#3d3f38" x="29.9466" font-size="1.76" font-family="'Droid Sans'" stroke-width="1" id="text1862" y="86.524">.</text>
 </g>
 <g transform="scale(1.0000021,0.99999791)">
  <text  fill="#3d3f38" x="30.746" font-size="1.76" font-family="'Droid Sans'" stroke-width="1" id="text1874" y="86.524">0</text>
 </g>
 <g transform="scale(1.0000021,0.99999791)">
  <text  fill="#3d3f38" x="32.0516" font-size="1.76" font-family="'Droid Sans'" stroke-width="1" id="text1886" y="86.524">0</text>
 </g>
 <g transform="scale(1.0000021,0.99999791)">
  <text  fill="#3d3f38" x="33.3578" font-size="1.76" font-family="'Droid Sans'" stroke-width="1" id="text1898" y="86.524"/>
 </g>
 <g transform="scale(1.0000021,0.99999791)">
  <text  fill="#3d3f38" x="34.0389" font-size="1.76" font-family="'Droid Sans'" stroke-width="1" id="text1910" y="86.524">T</text>
 </g>
 <g transform="scale(1.0000021,0.99999791)">
  <text  fill="#3d3f38" x="35.4208" font-size="1.76" font-family="'Droid Sans'" stroke-width="1" id="text1922" y="86.524">T</text>
 </g>
 <g transform="scale(1.0000021,0.99999791)">
  <text  fill="#3d3f38" x="36.8031" font-size="1.76" font-family="'Droid Sans'" stroke-width="1" id="text1934" y="86.524">T</text>
 </g>
 <path  fill="#3d3f38" stroke-width="1" d="m33.2701,75.8369,-0.0840009,-0.125006c0,-0.960998,-0.439002,-1.337,-0.961005,-1.62999,0.146001,-0.0420048,0.313001,-0.0840024,0.355002,-0.272002,0.272001,-0.063,0.313001,-0.188006,0.355002,-0.312998,0.063,-0.0420048,0.313001,-0.187999,0.272001,-0.397008,0.125001,-0.0839952,0.209001,-0.208994,0.167001,-0.375991,0.146,-0.146002,0.188001,-0.272002,0.125001,-0.397008,0.167,-0.208994,0.104,-0.312998,0.0209995,-0.438995,0.125001,-0.229999,0.0210002,-0.480999,-0.334001,-0.438999,-0.146,-0.209,-0.439002,-0.167,-0.501002,-0.167,-0.063,-0.0630007,-0.125001,-0.125,-0.334001,-0.104,-0.146001,-0.124999,-0.292001,-0.104,-0.460002,-0.0419997,-0.188001,-0.146,-0.313001,-0.0210002,-0.460002,0.0210002,-0.23,-0.0840002,-0.292001,0.0209995,-0.397001,0.063,-0.251001,-0.063,-0.334001,0.063,-0.460002,0.188l-0.146,0c-0.376002,0.23,-0.564002,0.668995,-0.648003,0.897998,-0.0630007,-0.230004,-0.251001,-0.688998,-0.648003,-0.897998l-0.146,0c-0.125001,-0.125,-0.188001,-0.23,-0.460002,-0.188,-0.104,-0.0420005,-0.167,-0.146,-0.397001,-0.063,-0.104,-0.0210002,-0.188001,-0.0840002,-0.292002,-0.0840002l0,0c-0.063,0,-0.104,0.0209995,-0.188001,0.063,-0.167001,-0.063,-0.313001,-0.0840002,-0.460002,0.0419997,-0.209001,-0.0209995,-0.292001,0.0210002,-0.334001,0.104,-0.0419997,0,-0.355002,-0.0420005,-0.501002,0.167,-0.355002,-0.0419997,-0.460002,0.209,-0.334001,0.438999,-0.0630007,0.104004,-0.146001,0.208998,0.0210002,0.438995,-0.0630007,0.125006,-0.0210002,0.251006,0.125,0.397008,-0.0419997,0.166997,0.0420005,0.271994,0.167001,0.375991,-0.0210002,0.230004,0.209001,0.355003,0.272001,0.397008,0.0210002,0.124992,0.0840009,0.250999,0.355002,0.312998,0.0420005,0.187999,0.209001,0.229997,0.355002,0.272002,-0.522002,0.291996,-0.961005,0.688997,-0.961005,1.62999l-0.0840002,0.125006c-0.585003,0.354996,-1.128,1.48299,-0.292002,2.423,0.0630007,0.291996,0.146001,0.500997,0.230001,0.730994,0.125001,0.919001,0.919,1.35801,1.128,1.42101,0.313001,0.229997,0.627002,0.438998,1.065,0.606002,0.418002,0.417989,0.857001,0.584993,1.31601,0.584993l0.0210002,0c0.460002,0,0.898005,-0.167004,1.31601,-0.584993,0.439002,-0.146002,0.773006,-0.376006,1.065,-0.606002,0.209001,-0.0420048,1.003,-0.481003,1.128,-1.42101,0.0840002,-0.229997,0.167001,-0.438998,0.230001,-0.730994,0.921002,-0.94001,0.399002,-2.06801,-0.207001,-2.423zm-0.438002,-0.167004c-0.0210002,0.375998,-2.02701,-1.337,-1.69201,-1.4,0.939002,-0.146002,1.71201,0.396994,1.69201,1.4zm-0.899006,1.901c-0.501002,0.334001,-1.23301,0.124999,-1.60901,-0.460001,-0.397001,-0.585,-0.292001,-1.31599,0.209002,-1.64999,0.501002,-0.334001,1.23301,-0.125006,1.60901,0.460001,0.397001,0.605995,0.293001,1.33699,-0.209001,1.64999zm-1.37901,-5.912c0.0210002,0.0839995,0.0420005,0.146,0.0630007,0.146,0.104,-0.125,0.209001,-0.251,0.334001,-0.355,0,0.0629993,-0.0420005,0.145999,0.0419997,0.188,0.0840009,-0.104,0.188001,-0.188,0.313002,-0.272,-0.0630007,0.104,-0.0210002,0.145999,0.0209995,0.188,0.104,-0.0840002,0.209001,-0.188,0.397002,-0.251001,-0.0630007,0.0630007,-0.125001,0.125,-0.0420005,0.209,0.104,-0.063,0.209001,-0.125,0.481002,-0.188,-0.0630007,0.063,-0.188001,0.125,-0.104,0.188,0.146,-0.0419997,0.292001,-0.0840002,0.460001,-0.104,-0.0840002,0.063,-0.146,0.125,-0.0840002,0.188,0.146001,-0.0419997,0.355002,-0.104,0.543002,-0.063l-0.125001,0.125c-0.0209995,0.0210002,0.292002,0.0210002,0.481002,0.0210002,-0.063,0.104,-0.146001,0.208999,-0.188001,0.375992,0.0209995,0.0210024,0.125001,0,0.209001,0,-0.104,0.209009,-0.272002,0.251006,-0.292002,0.334001,0.0630007,0.0420048,0.146001,0.0420048,0.230001,0,-0.063,0.146002,-0.209001,0.230004,-0.334001,0.355003,0.0210002,0.0210024,0.0840002,0.0420048,0.209001,0.0210024,-0.104,0.103997,-0.230001,0.209002,-0.376001,0.312998,0.0210002,0.0210024,0.125001,0.0210024,0.209001,0.0420048,-0.146001,0.124999,-0.313001,0.208994,-0.481002,0.291996,0.0840002,0.063,0.146001,0.0419976,0.209001,0.0419976,-0.125001,0.103997,-0.313001,0.146002,-0.501002,0.209002,0.0419997,0.063,0.063,0.063,0.146001,0.0840024,-0.188001,0.104004,-0.481002,0.063,-0.564002,0.104004,0.0209995,0.0629928,0.063,0.0839952,0.146,0.124992,-0.313001,0.0210024,-1.17001,-0.0209952,-1.337,-0.668995,0.313001,-0.355003,0.919,-0.772999,1.92201,-1.274,-0.794001,0.271987,-1.50401,0.605995,-2.08901,1.107,-0.733003,-0.331999,-0.253001,-1.147,0.102,-1.481zm-0.710003,2.361l0,0c0.501002,0,1.10701,0.354996,1.10701,0.709999,0,0.312998,-0.439002,0.563997,-1.10701,0.542995,-0.669003,0,-1.10701,-0.312998,-1.10701,-0.606002,0,-0.250992,0.543002,-0.668001,1.10701,-0.646992zm-2.52801,-0.272002c0.0840002,-0.0210024,0.104,-0.0210024,0.146001,-0.0840024,-0.188001,-0.063,-0.376002,-0.104004,-0.501002,-0.209002,0.0630007,0,0.125001,0.0210024,0.209001,-0.0419976,-0.167,-0.0840024,-0.334001,-0.167004,-0.481002,-0.292003,0.0840002,0,0.188001,0,0.209001,-0.0419976,-0.146001,-0.0840024,-0.272002,-0.187999,-0.376002,-0.312998,0.125001,0.0209952,0.167001,0,0.209001,-0.0210024,-0.104,-0.124999,-0.251001,-0.208994,-0.334001,-0.354996,0.0840002,0.0209952,0.167001,0.0419976,0.230001,0,-0.0419997,-0.0840024,-0.209001,-0.146002,-0.292001,-0.334001,0.0840002,0,0.188001,0.0209952,0.209001,0,-0.0420005,-0.166998,-0.125001,-0.272,-0.188001,-0.376,0.209001,0,0.501002,0,0.481002,-0.0210002l-0.125001,-0.125c0.188001,-0.0419997,0.397002,0,0.543002,0.063,0.0630007,-0.0420005,0,-0.104,-0.0840002,-0.188,0.167001,0.0209995,0.313001,0.063,0.460002,0.104,0.063,-0.0629993,-0.0420005,-0.125,-0.104,-0.188,0.251001,0.0419997,0.376001,0.125001,0.481002,0.188,0.0840009,-0.0839995,0,-0.146,-0.0419997,-0.209,0.188001,0.063,0.292001,0.167,0.397001,0.251,0.0420005,-0.0419997,0.0840002,-0.0839995,0.0210002,-0.188,0.146001,0.0840002,0.251001,0.167,0.313001,0.272,0.0840002,-0.063,0.0420005,-0.125,0.0420005,-0.188,0.146,0.104,0.230001,0.23,0.334001,0.355004,0.0209995,-0.0210038,0.0419997,-0.0630043,0.063,-0.146004,0.334001,0.334002,0.815004,1.149,0.125001,1.462,-0.585003,-0.480996,-1.29501,-0.835999,-2.08901,-1.107,1.003,0.522,1.60901,0.919001,1.92201,1.274,-0.167,0.647993,-1.02401,0.688997,-1.337,0.669002,0.063,-0.0210096,0.125001,-0.0630072,0.146,-0.125006,-0.106001,-0.021996,-0.378001,0.0190008,-0.587002,-0.084996zm1.23301,0.500997c0.355001,0.063,-1.65001,1.776,-1.69201,1.4,-0.0210002,-1.003,0.752004,-1.54601,1.69201,-1.4zm-2.11001,3.824c-0.481002,-0.375998,-0.648003,-1.504,0.251001,-2.027,0.543002,-0.124992,0.187,2.23501,-0.251001,2.027zm1.85901,2.02601c-0.272002,0.166997,-0.940003,0.103997,-1.42101,-0.564005,-0.313001,-0.564005,-0.272002,-1.128,-0.063,-1.295,0.334001,-0.209002,0.857001,0.0629928,1.254,0.522,0.355002,0.397001,0.523002,1.12799,0.230001,1.337zm-0.543002,-2.46501c-0.501002,-0.334001,-0.585003,-1.065,-0.209001,-1.65,0.397001,-0.584993,1.10701,-0.794001,1.60901,-0.460001,0.502002,0.334001,0.585003,1.065,0.209001,1.65001,-0.377001,0.584993,-1.10801,0.793994,-1.60901,0.459993zm2.08901,3.614c-0.606003,0.0209952,-1.191,-0.481003,-1.191,-0.669002,0,-0.250999,0.731001,-0.460001,1.212,-0.460001,0.481002,-0.0210024,1.149,0.146002,1.149,0.397001,0.0210002,0.230998,-0.585003,0.732002,-1.17001,0.732002zm1.212,-2.57c0,0.606002,-0.543002,1.107,-1.212,1.107,-0.669003,0,-1.212,-0.480996,-1.212,-1.107,0,0,0,0,0,-0.0210024,0,-0.605995,0.543002,-1.107,1.212,-1.107,0.669003,0.0210024,1.212,0.502005,1.212,1.128zm1.69201,0.877997c-0.522002,0.710006,-1.212,0.731009,-1.48301,0.543009,-0.272002,-0.251006,-0.0630007,-1.045,0.313001,-1.48301l0,0c0.439002,-0.480996,0.898005,-0.794001,1.212,-0.543002,0.209001,0.208008,0.334001,1.002,-0.0420005,1.483zm0.460002,-1.50399c-0.439002,0.187999,-0.794001,-2.152,-0.251001,-2.027,0.898005,0.521993,0.752004,1.651,0.251001,2.027z" id="path1947"/>
 <path  fill="#958863" gorn="0.1.1.8.0.0" stroke-width="1" d="m6.53903,16.745c0,-1.089,-0.886003,-1.975,-1.97501,-1.975L0,14.77l0,0.766001c0,0,0,0,0,0,0.667003,0,1.21,0.542,1.21,1.209,0,0.667,-0.543002,1.21,-1.21,1.21,0,0,0,0,0,0l0,0.766001l4.56402,0c1.08901,-0.0009936,1.97501,-0.886997,1.97501,-1.976zm-1.97501,1.197c-0.660003,0,-1.19701,-0.537,-1.19701,-1.197,0,-0.66,0.537002,-1.197,1.19701,-1.197,0.660003,0,1.19701,0.537,1.19701,1.197,0,0.66,-0.537002,1.197,-1.19701,1.197z" id="path227"/>
 <path  fill="#958863" gorn="0.1.1.8.0.1" stroke-width="1" d="M6.53903,21.971L0,21.971l0,0.766001c0,0,0,0,0,0,0.667003,0,1.21,0.542,1.21,1.209,0,0.667001,-0.543002,1.209,-1.21,1.209,0,0,0,0,0,0L0,25.921l6.53903,0zm-1.97501,3.172c-0.660003,0,-1.19701,-0.537,-1.19701,-1.197,0,-0.659999,0.537002,-1.197,1.19701,-1.197,0.660003,0,1.19701,0.537,1.19701,1.197,0,0.660001,-0.537002,1.197,-1.19701,1.197z" id="path41"/>
 <path  fill="#958863" gorn="0.1.1.8.0.2" stroke-width="1" d="m6.53903,31.145c0,-1.089,-0.886003,-1.975,-1.97501,-1.975L0,29.17l0,0.766001c0,0,0,0,0,0,0.667003,0,1.21,0.542,1.21,1.209,0,0.667,-0.543002,1.21,-1.21,1.21,0,0,0,0,0,0l0,0.766001l4.56402,0c1.08901,-0.0010008,1.97501,-0.886997,1.97501,-1.976zm-1.97501,1.197c-0.660003,0,-1.19701,-0.537,-1.19701,-1.197,0,-0.66,0.537002,-1.197,1.19701,-1.197,0.660003,0,1.19701,0.537,1.19701,1.197,0,0.66,-0.537002,1.197,-1.19701,1.197z" id="path230"/>
 <path  fill="#958863" gorn="0.1.1.8.0.3" stroke-width="1" d="m6.53903,38.344c0,-1.089,-0.886003,-1.975,-1.97501,-1.975L0,36.369l0,0.766001c0,0,0,0,0,0,0.667003,0,1.21,0.542001,1.21,1.209,0,0.667,-0.543002,1.21,-1.21,1.21,0,0,0,0,0,0l0,0.766001l4.56402,0c1.08901,-0.0010008,1.97501,-0.886997,1.97501,-1.976zm-1.97501,1.197c-0.660003,0,-1.19701,-0.537,-1.19701,-1.197,0,-0.660001,0.537002,-1.197,1.19701,-1.197,0.660003,0,1.19701,0.537,1.19701,1.197,0,0.66,-0.537002,1.197,-1.19701,1.197z" id="path39"/>
 <path  fill="#958863" gorn="0.1.1.8.0.4" stroke-width="1" d="m6.53903,45.544c0,-1.089,-0.886003,-1.975,-1.97501,-1.975L0,43.569l0,0.766001c0,0,0,0,0,0,0.667003,0,1.21,0.542001,1.21,1.209,0,0.667,-0.543002,1.21,-1.21,1.21,0,0,0,0,0,0l0,0.766001l4.56402,0c1.08901,-0.0010008,1.97501,-0.886997,1.97501,-1.976zm-1.97501,1.197c-0.660003,0,-1.19701,-0.537,-1.19701,-1.197,0,-0.66,0.537002,-1.197,1.19701,-1.197,0.660003,0,1.19701,0.537,1.19701,1.197,0,0.66,-0.537002,1.197,-1.19701,1.197z" id="path233"/>
 <path  fill="#958863" gorn="0.1.1.8.0.5" stroke-width="1" d="m6.53903,52.744c0,-1.089,-0.886003,-1.975,-1.97501,-1.975L0,50.769l0,0.766001c0,0,0,0,0,0,0.667003,0,1.21,0.542,1.21,1.209,0,0.667,-0.543002,1.21,-1.21,1.21,0,0,0,0,0,0l0,0.766001l4.56402,0c1.08901,-0.0009936,1.97501,-0.886997,1.97501,-1.976zm-1.97501,1.197c-0.660003,0,-1.19701,-0.537,-1.19701,-1.197,0,-0.66,0.537002,-1.197,1.19701,-1.197,0.660003,0,1.19701,0.537,1.19701,1.197,0,0.66,-0.537002,1.197,-1.19701,1.197z" id="path37"/>
 <path  fill="#958863" gorn="0.1.1.8.0.6" stroke-width="1" d="M6.53903,57.969L0,57.969l0,0.766001c0,0,0,0,0,0,0.667003,0,1.21,0.542,1.21,1.209,0,0.667001,-0.543002,1.21,-1.21,1.21,0,0,0,0,0,0l0,0.766001l6.53903,0zm-1.97501,3.172c-0.660003,0,-1.19701,-0.537,-1.19701,-1.197,0,-0.659999,0.537002,-1.197,1.19701,-1.197,0.660003,0,1.19701,0.537001,1.19701,1.197,0,0.66,-0.537002,1.197,-1.19701,1.197z" id="path236"/>
 <path  fill="#958863" gorn="0.1.1.8.0.7" stroke-width="1" d="m6.53903,67.144c0,-1.089,-0.886003,-1.975,-1.97501,-1.975L0,65.169l0,0.766001c0,0,0,0,0,0,0.667003,0,1.21,0.541999,1.21,1.209,0,0.667,-0.543002,1.21,-1.21,1.21,0,0,0,0,0,0l0,0.766001l4.56402,0c1.08901,-0.0010008,1.97501,-0.886997,1.97501,-1.976zm-1.97501,1.197c-0.660003,0,-1.19701,-0.537001,-1.19701,-1.197,0,-0.66,0.537002,-1.197,1.19701,-1.197,0.660003,0,1.19701,0.537,1.19701,1.197,0,0.659999,-0.537002,1.197,-1.19701,1.197z" id="path35"/>
 <path  fill="#958863" gorn="0.1.1.8.0.8" stroke-width="1" d="m6.53903,74.3443c0,-1.08899,-0.886003,-1.975,-1.97501,-1.975L0,72.3693l0,0.766001c0,0,0,0,0,0,0.667003,0,1.21,0.542001,1.21,1.20899,0,0.667008,-0.543002,1.21,-1.21,1.21,0,0,0,0,0,0l0,0.766001l4.56402,0c1.08901,-0.001008,1.97501,-0.886997,1.97501,-1.976zm-1.97501,1.197c-0.660003,0,-1.19701,-0.536997,-1.19701,-1.197,0,-0.660002,0.537002,-1.197,1.19701,-1.197,0.660003,0,1.19701,0.536997,1.19701,1.197,0,0.660002,-0.537002,1.197,-1.19701,1.197z" id="path239"/>
 <path  fill="#958863" gorn="0.1.1.8.0.9" stroke-width="1" d="m6.53903,81.5443c0,-1.08901,-0.886003,-1.975,-1.97501,-1.975L0,79.5693l0,0.766001c0,0,0,0,0,0,0.667003,0,1.21,0.542001,1.21,1.209,0,0.666993,-0.543002,1.21,-1.21,1.21,0,0,0,0,0,0l0,0.765993l4.56402,0c1.08901,-0.001008,1.97501,-0.886997,1.97501,-1.976zm-1.97501,1.197c-0.660003,0,-1.19701,-0.536997,-1.19701,-1.197,0,-0.660002,0.537002,-1.197,1.19701,-1.197,0.660003,0,1.19701,0.536997,1.19701,1.197,0,0.660002,-0.537002,1.197,-1.19701,1.197z" id="path33"/>
 <path  fill="#958863" gorn="0.1.1.8.0.10" stroke-width="1" d="m6.53903,88.7443c0,-1.08901,-0.886003,-1.975,-1.97501,-1.975L0,86.7693l0,0.765993c0,0,0,0,0,0,0.667003,0,1.21,0.542001,1.21,1.20901,0,0.666993,-0.543002,1.20999,-1.21,1.20999,0,0,0,0,0,0l0,0.766008l4.56402,0c1.08901,-0.001008,1.97501,-0.887004,1.97501,-1.976zm-1.97501,1.197c-0.660003,0,-1.19701,-0.537005,-1.19701,-1.197,0,-0.660002,0.537002,-1.19701,1.19701,-1.19701,0.660003,0,1.19701,0.537005,1.19701,1.19701,0,0.659995,-0.537002,1.197,-1.19701,1.197z" id="path242"/>
 <path  fill="#958863" gorn="0.1.1.8.0.11" stroke-width="1" d="M6.53903,93.9693L0,93.9693l0,0.766008c0,0,0,0,0,0,0.667003,0,1.21,0.542001,1.21,1.20899,0,0.667008,-0.543002,1.21,-1.21,1.21,0,0,0,0,0,0l0,0.766001l6.53903,0zm-1.97501,3.172c-0.660003,0,-1.19701,-0.536997,-1.19701,-1.197,0,-0.660002,0.537002,-1.197,1.19701,-1.197,0.660003,0,1.19701,0.536997,1.19701,1.197,0,0.660002,-0.537002,1.197,-1.19701,1.197z" id="path31"/>
 <path  fill="#958863" gorn="0.1.1.8.0.12" stroke-width="1" d="m6.53903,103.144c0,-1.08901,-0.886003,-1.975,-1.97501,-1.975L0,101.169l0,0.766001c0,0,0,0,0,0,0.667003,0,1.21,0.542001,1.21,1.209,0,0.666993,-0.543002,1.20899,-1.21,1.20899,0,0,0,0,0,0l0,0.766001l4.56402,0c1.08901,0,1.97501,-0.885996,1.97501,-1.975zm-1.97501,1.197c-0.660003,0,-1.19701,-0.536997,-1.19701,-1.197,0,-0.660002,0.537002,-1.197,1.19701,-1.197,0.660003,0,1.19701,0.536997,1.19701,1.197,0,0.660002,-0.537002,1.197,-1.19701,1.197z" id="path245"/>
 <path  fill="#958863" gorn="0.1.1.8.0.13" stroke-width="1" d="m6.53903,110.344c0,-1.089,-0.886003,-1.975,-1.97501,-1.975L0,108.369l0,0.765993c0,0,0,0,0,0,0.667003,0,1.21,0.542001,1.21,1.209,0,0.667001,-0.543002,1.209,-1.21,1.209,0,0,0,0,0,0l0,0.766001l4.56402,0c1.08901,0,1.97501,-0.886003,1.97501,-1.975zm-1.97501,1.197c-0.660003,0,-1.19701,-0.536997,-1.19701,-1.197,0,-0.659995,0.537002,-1.197,1.19701,-1.197,0.660003,0,1.19701,0.537005,1.19701,1.197,0,0.660002,-0.537002,1.197,-1.19701,1.197z" id="path29"/>
 <path  fill="#958863" gorn="0.1.1.8.0.14" stroke-width="1" d="m6.53903,117.544c0,-1.089,-0.886003,-1.975,-1.97501,-1.975L0,115.569l0,0.766001c0,0,0,0,0,0,0.667003,0,1.21,0.541994,1.21,1.209,0,0.666993,-0.543002,1.20899,-1.21,1.20899,0,0,0,0,0,0l0,0.766001l4.56402,0c1.08901,0,1.97501,-0.886003,1.97501,-1.975zm-1.97501,1.197c-0.660003,0,-1.19701,-0.537005,-1.19701,-1.197,0,-0.660002,0.537002,-1.19701,1.19701,-1.19701,0.660003,0,1.19701,0.537005,1.19701,1.19701,0,0.659995,-0.537002,1.197,-1.19701,1.197z" id="path248"/>
 <path  fill="#958863" gorn="0.1.1.8.0.15" stroke-width="1" d="m6.53903,124.744c0,-1.089,-0.886003,-1.975,-1.97501,-1.975L0,122.769l0,0.766001c0,0,0,0,0,0,0.667003,0,1.21,0.542001,1.21,1.209,0,0.667001,-0.543002,1.209,-1.21,1.209,0,0,0,0,0,0l0,0.765993l4.56402,0c1.08901,0,1.97501,-0.885996,1.97501,-1.975zm-1.97501,1.197c-0.660003,0,-1.19701,-0.537005,-1.19701,-1.197,0,-0.660002,0.537002,-1.197,1.19701,-1.197,0.660003,0,1.19701,0.536997,1.19701,1.197,0,0.659995,-0.537002,1.197,-1.19701,1.197z" id="path27"/>
 <path  fill="#958863" gorn="0.1.1.8.0.16" stroke-width="1" d="M6.53903,129.969L0,129.969l0,0.766001c0,0,0,0,0,0,0.667003,0,1.21,0.542001,1.21,1.20899,0,0.667001,-0.543002,1.209,-1.21,1.209,0,0,0,0,0,0l0,0.766001l6.53903,0zm-1.97501,3.172c-0.660003,0,-1.19701,-0.536997,-1.19701,-1.197,0,-0.660002,0.537002,-1.197,1.19701,-1.197,0.660003,0,1.19701,0.536997,1.19701,1.197,0,0.660002,-0.537002,1.197,-1.19701,1.197z" id="path251"/>
 <path  fill="#958863" gorn="0.1.1.8.0.17" stroke-width="1" d="m6.53903,139.144c0,-1.08901,-0.886003,-1.975,-1.97501,-1.975L0,137.169l0,0.765993c0,0,0,0,0,0,0.667003,0,1.21,0.542001,1.21,1.20901,0,0.666993,-0.543002,1.20899,-1.21,1.20899,0,0,0,0,0,0l0,0.766001l4.56402,0c1.08901,0,1.97501,-0.886003,1.97501,-1.975zm-1.97501,1.197c-0.660003,0,-1.19701,-0.536997,-1.19701,-1.197,0,-0.660002,0.537002,-1.197,1.19701,-1.197,0.660003,0,1.19701,0.536997,1.19701,1.197,0,0.660002,-0.537002,1.197,-1.19701,1.197z" id="path25"/>
 <path  fill="#958863" gorn="0.1.1.8.0.18" stroke-width="1" d="m6.53903,146.343c0,-1.08901,-0.886003,-1.975,-1.97501,-1.975L0,144.368l0,0.766001c0,0,0,0,0,0,0.667003,0,1.21,0.542001,1.21,1.209,0,0.666993,-0.543002,1.20899,-1.21,1.20899,0,0,0,0,0,0l0,0.766008l4.56402,0c1.08901,0,1.97501,-0.886003,1.97501,-1.975zm-1.97501,1.197c-0.660003,0,-1.19701,-0.536997,-1.19701,-1.197,0,-0.660002,0.537002,-1.197,1.19701,-1.197,0.660003,0,1.19701,0.536997,1.19701,1.197,0,0.660002,-0.537002,1.197,-1.19701,1.197z" id="path254"/>
 <path  fill="#958863" gorn="0.1.1.8.0.19" stroke-width="1" d="m54.9642,18.72l4.56402,0l0,-0.766001c0,0,0,0,0,0,-0.667003,0,-1.21,-0.542,-1.21,-1.209,0,-0.667,0.543002,-1.209,1.21,-1.209,0,0,0,0,0,0l0,-0.766001l-4.56402,0c-1.08901,0,-1.97501,0.886003,-1.97501,1.975,0,1.089,0.886003,1.975,1.97501,1.975zm-1.19701,-1.975c0,-0.66,0.537002,-1.197,1.19701,-1.197,0.660003,0,1.19701,0.537,1.19701,1.197,0,0.66,-0.537002,1.197,-1.19701,1.197,-0.660003,0,-1.19701,-0.537,-1.19701,-1.197z" id="path2"/>
 <path  fill="#958863" gorn="0.1.1.8.0.20" stroke-width="1" d="m52.9892,25.921l6.53903,0l0,-0.766001c0,0,0,0,0,0,-0.667003,0,-1.21,-0.542,-1.21,-1.209,0,-0.667,0.543002,-1.209,1.21,-1.209,0,0,0,0,0,0l0,-0.766001l-6.53903,0zm0.778003,-1.975c0,-0.659999,0.537002,-1.197,1.19701,-1.197,0.660003,0,1.19701,0.537,1.19701,1.197,0,0.660001,-0.537002,1.197,-1.19701,1.197,-0.660003,0,-1.19701,-0.537,-1.19701,-1.197z" id="path3"/>
 <path  fill="#958863" gorn="0.1.1.8.0.21" stroke-width="1" d="m54.9642,33.12l4.56402,0l0,-0.766001c0,0,0,0,0,0,-0.667003,0,-1.21,-0.542,-1.21,-1.209,0,-0.667,0.543002,-1.209,1.21,-1.209,0,0,0,0,0,0l0,-0.766001l-4.56402,0c-1.08901,0,-1.97501,0.886003,-1.97501,1.975,0,1.089,0.886003,1.975,1.97501,1.975zm-1.19701,-1.975c0,-0.66,0.537002,-1.197,1.19701,-1.197,0.660003,0,1.19701,0.537,1.19701,1.197,0,0.66,-0.537002,1.197,-1.19701,1.197,-0.660003,0,-1.19701,-0.537,-1.19701,-1.197z" id="path258"/>
 <path  fill="#958863" gorn="0.1.1.8.0.22" stroke-width="1" d="M54.9642,40.319L59.5283,40.319L59.5283,39.553c0,0,0,0,0,0,-0.667003,0,-1.21,-0.542,-1.21,-1.209,0,-0.667,0.543002,-1.209,1.21,-1.209,0,0,0,0,0,0l0,-0.766001l-4.56402,0c-1.08901,0,-1.97501,0.886003,-1.97501,1.975,0,1.089,0.886003,1.975,1.97501,1.975zm-1.19701,-1.975c0,-0.660001,0.537002,-1.197,1.19701,-1.197,0.660003,0,1.19701,0.537,1.19701,1.197,0,0.66,-0.537002,1.197,-1.19701,1.197,-0.660003,0,-1.19701,-0.537,-1.19701,-1.197z" id="path5"/>
 <path  fill="#958863" gorn="0.1.1.8.0.23" stroke-width="1" d="m54.9642,47.519l4.56402,0l0,-0.766001c0,0,0,0,0,0,-0.667003,0,-1.21,-0.542,-1.21,-1.209,0,-0.667,0.543002,-1.209,1.21,-1.209,0,0,0,0,0,0l0,-0.766001l-4.56402,0c-1.08901,0,-1.97501,0.886003,-1.97501,1.975,0,1.089,0.886003,1.975,1.97501,1.975zm-1.19701,-1.975c0,-0.66,0.537002,-1.197,1.19701,-1.197,0.660003,0,1.19701,0.537,1.19701,1.197,0,0.66,-0.537002,1.197,-1.19701,1.197,-0.660003,0,-1.19701,-0.537,-1.19701,-1.197z" id="path261"/>
 <path  fill="#958863" gorn="0.1.1.8.0.24" stroke-width="1" d="m54.9642,54.719l4.56402,0l0,-0.766001c0,0,0,0,0,0,-0.667003,0,-1.21,-0.542,-1.21,-1.209,0,-0.667,0.543002,-1.209,1.21,-1.209,0,0,0,0,0,0l0,-0.766001l-4.56402,0c-1.08901,0,-1.97501,0.886003,-1.97501,1.975,0,1.089,0.886003,1.975,1.97501,1.975zm-1.19701,-1.975c0,-0.66,0.537002,-1.197,1.19701,-1.197,0.660003,0,1.19701,0.537,1.19701,1.197,0,0.66,-0.537002,1.197,-1.19701,1.197,-0.660003,0,-1.19701,-0.537,-1.19701,-1.197z" id="path7"/>
 <path  fill="#958863" gorn="0.1.1.8.0.25" stroke-width="1" d="m52.9892,61.919l6.53903,0l0,-0.766001c0,0,0,0,0,0,-0.667003,0,-1.21,-0.541999,-1.21,-1.209,0,-0.667,0.543002,-1.209,1.21,-1.209,0,0,0,0,0,0l0,-0.766001l-6.53903,0zm0.778003,-1.975c0,-0.659999,0.537002,-1.197,1.19701,-1.197,0.660003,0,1.19701,0.537001,1.19701,1.197,0,0.66,-0.537002,1.197,-1.19701,1.197,-0.660003,0,-1.19701,-0.537,-1.19701,-1.197z" id="path264"/>
 <path  fill="#958863" gorn="0.1.1.8.0.26" stroke-width="1" d="m54.9642,69.119l4.56402,0l0,-0.766001c0,0,0,0,0,0,-0.667003,0,-1.21,-0.542,-1.21,-1.209,0,-0.667001,0.543002,-1.209,1.21,-1.209,0,0,0,0,0,0l0,-0.766001l-4.56402,0c-1.08901,0,-1.97501,0.886003,-1.97501,1.975,0,1.089,0.886003,1.975,1.97501,1.975zm-1.19701,-1.975c0,-0.66,0.537002,-1.197,1.19701,-1.197,0.660003,0,1.19701,0.537,1.19701,1.197,0,0.659999,-0.537002,1.197,-1.19701,1.197,-0.660003,0,-1.19701,-0.537001,-1.19701,-1.197z" id="path9"/>
 <path  fill="#958863" gorn="0.1.1.8.0.27" stroke-width="1" d="m54.9642,76.3193l4.56402,0l0,-0.765993c0,0,0,0,0,0,-0.667003,0,-1.21,-0.542001,-1.21,-1.20901,0,-0.666993,0.543002,-1.20899,1.21,-1.20899,0,0,0,0,0,0l0,-0.766001l-4.56402,0c-1.08901,0,-1.97501,0.886003,-1.97501,1.975,0,1.08901,0.886003,1.975,1.97501,1.975zm-1.19701,-1.975c0,-0.660002,0.537002,-1.197,1.19701,-1.197,0.660003,0,1.19701,0.536997,1.19701,1.197,0,0.660002,-0.537002,1.197,-1.19701,1.197,-0.660003,0,-1.19701,-0.536997,-1.19701,-1.197z" id="path10"/>
 <path  fill="#958863" gorn="0.1.1.8.0.28" stroke-width="1" d="m54.9642,83.5193l4.56402,0l0,-0.766008c0,0,0,0,0,0,-0.667003,0,-1.21,-0.542001,-1.21,-1.20899,0,-0.667001,0.543002,-1.209,1.21,-1.209,0,0,0,0,0,0l0,-0.766001l-4.56402,0c-1.08901,0,-1.97501,0.885996,-1.97501,1.975,0,1.089,0.886003,1.975,1.97501,1.975zm-1.19701,-1.975c0,-0.660002,0.537002,-1.197,1.19701,-1.197,0.660003,0,1.19701,0.536997,1.19701,1.197,0,0.660002,-0.537002,1.197,-1.19701,1.197,-0.660003,0,-1.19701,-0.536997,-1.19701,-1.197z" id="path11"/>
 <path  fill="#958863" gorn="0.1.1.8.0.29" stroke-width="1" d="m54.9642,90.7193l4.56402,0l0,-0.766001c0,0,0,0,0,0,-0.667003,0,-1.21,-0.542001,-1.21,-1.20899,0,-0.667008,0.543002,-1.20901,1.21,-1.20901,0,0,0,0,0,0l0,-0.765993l-4.56402,0c-1.08901,0,-1.97501,0.885996,-1.97501,1.975,0,1.08899,0.886003,1.975,1.97501,1.975zm-1.19701,-1.975c0,-0.660002,0.537002,-1.19701,1.19701,-1.19701,0.660003,0,1.19701,0.537005,1.19701,1.19701,0,0.659995,-0.537002,1.197,-1.19701,1.197,-0.660003,0,-1.19701,-0.537005,-1.19701,-1.197z" id="path269"/>
 <path  fill="#958863" gorn="0.1.1.8.0.30" stroke-width="1" d="m52.9892,97.9193l6.53903,0l0,-0.765993c0,0,0,0,0,0,-0.667003,0,-1.21,-0.542001,-1.21,-1.20901,0,-0.666993,0.543002,-1.20899,1.21,-1.20899,0,0,0,0,0,0l0,-0.766008l-6.53903,0zm0.778003,-1.975c0,-0.660002,0.537002,-1.197,1.19701,-1.197,0.660003,0,1.19701,0.536997,1.19701,1.197,0,0.660002,-0.537002,1.197,-1.19701,1.197,-0.660003,0,-1.19701,-0.536997,-1.19701,-1.197z" id="path13"/>
 <path  fill="#958863" gorn="0.1.1.8.0.31" stroke-width="1" d="m54.9642,105.119l4.56402,0l0,-0.766001c0,0,0,0,0,0,-0.667003,0,-1.21,-0.542001,-1.21,-1.20899,0,-0.667001,0.543002,-1.209,1.21,-1.209,0,0,0,0,0,0l0,-0.766001l-4.56402,0c-1.08901,0,-1.97501,0.885996,-1.97501,1.975,0,1.089,0.886003,1.975,1.97501,1.975zm-1.19701,-1.975c0,-0.660002,0.537002,-1.197,1.19701,-1.197,0.660003,0,1.19701,0.536997,1.19701,1.197,0,0.660002,-0.537002,1.197,-1.19701,1.197,-0.660003,0,-1.19701,-0.536997,-1.19701,-1.197z" id="path272"/>
 <path  fill="#958863" gorn="0.1.1.8.0.32" stroke-width="1" d="m54.9642,112.319l4.56402,0l0,-0.766001c0,0,0,0,0,0,-0.667003,0,-1.21,-0.542001,-1.21,-1.209,0,-0.667001,0.543002,-1.209,1.21,-1.209,0,0,0,0,0,0l0,-0.765993l-4.56402,0c-1.08901,0,-1.97501,0.885996,-1.97501,1.975,0,1.089,0.886003,1.975,1.97501,1.975zm-1.19701,-1.975c0,-0.659995,0.537002,-1.197,1.19701,-1.197,0.660003,0,1.19701,0.537005,1.19701,1.197,0,0.660002,-0.537002,1.197,-1.19701,1.197,-0.660003,0,-1.19701,-0.536997,-1.19701,-1.197z" id="path15"/>
 <path  fill="#958863" gorn="0.1.1.8.0.33" stroke-width="1" d="m54.9642,119.519l4.56402,0l0,-0.766001c0,0,0,0,0,0,-0.667003,0,-1.21,-0.542001,-1.21,-1.20899,0,-0.667008,0.543002,-1.209,1.21,-1.209,0,0,0,0,0,0l0,-0.766001l-4.56402,0c-1.08901,0,-1.97501,0.886003,-1.97501,1.975,0,1.08899,0.886003,1.975,1.97501,1.975zm-1.19701,-1.975c0,-0.660002,0.537002,-1.19701,1.19701,-1.19701,0.660003,0,1.19701,0.537005,1.19701,1.19701,0,0.659995,-0.537002,1.197,-1.19701,1.197,-0.660003,0,-1.19701,-0.537005,-1.19701,-1.197z" id="path275"/>
 <path  fill="#958863" gorn="0.1.1.8.0.34" stroke-width="1" d="m54.9642,126.719l4.56402,0l0,-0.765993c0,0,0,0,0,0,-0.667003,0,-1.21,-0.542001,-1.21,-1.209,0,-0.667001,0.543002,-1.209,1.21,-1.209,0,0,0,0,0,0l0,-0.766001l-4.56402,0c-1.08901,0,-1.97501,0.886003,-1.97501,1.975,0,1.089,0.886003,1.975,1.97501,1.975zm-1.19701,-1.975c0,-0.660002,0.537002,-1.197,1.19701,-1.197,0.660003,0,1.19701,0.536997,1.19701,1.197,0,0.659995,-0.537002,1.197,-1.19701,1.197,-0.660003,0,-1.19701,-0.537005,-1.19701,-1.197z" id="path17"/>
 <path  fill="#958863" gorn="0.1.1.8.0.35" stroke-width="1" d="m52.9892,133.919l6.53903,0l0,-0.766001c0,0,0,0,0,0,-0.667003,0,-1.21,-0.542001,-1.21,-1.209,0,-0.666993,0.543002,-1.20899,1.21,-1.20899,0,0,0,0,0,0l0,-0.766001l-6.53903,0zm0.778003,-1.975c0,-0.660002,0.537002,-1.197,1.19701,-1.197,0.660003,0,1.19701,0.536997,1.19701,1.197,0,0.660002,-0.537002,1.197,-1.19701,1.197,-0.660003,0,-1.19701,-0.536997,-1.19701,-1.197z" id="path278"/>
 <path  fill="#958863" gorn="0.1.1.8.0.36" stroke-width="1" d="m54.9642,141.119l4.56402,0l0,-0.766001c0,0,0,0,0,0,-0.667003,0,-1.21,-0.542001,-1.21,-1.20899,0,-0.667008,0.543002,-1.20901,1.21,-1.20901,0,0,0,0,0,0l0,-0.765993l-4.56402,0c-1.08901,0,-1.97501,0.885996,-1.97501,1.975,0,1.08899,0.886003,1.975,1.97501,1.975zm-1.19701,-1.975c0,-0.660002,0.537002,-1.197,1.19701,-1.197,0.660003,0,1.19701,0.536997,1.19701,1.197,0,0.660002,-0.537002,1.197,-1.19701,1.197,-0.660003,0,-1.19701,-0.536997,-1.19701,-1.197z" id="path19"/>
 <path  fill="#958863" gorn="0.1.1.8.0.37" stroke-width="1" d="m54.9642,148.318l4.56402,0l0,-0.766008c0,0,0,0,0,0,-0.667003,0,-1.21,-0.542001,-1.21,-1.20899,0,-0.667001,0.543002,-1.209,1.21,-1.209,0,0,0,0,0,0l0,-0.766001l-4.56402,0c-1.08901,0,-1.97501,0.885996,-1.97501,1.975,0,1.089,0.886003,1.975,1.97501,1.975zm-1.19701,-1.975c0,-0.660002,0.537002,-1.197,1.19701,-1.197,0.660003,0,1.19701,0.536997,1.19701,1.197,0,0.660002,-0.537002,1.197,-1.19701,1.197,-0.660003,0,-1.19701,-0.536997,-1.19701,-1.197z" id="path281"/>
 <path  fill="#958863" gorn="0.1.1.8.0.38" stroke-width="1" d="m22.5641,144.367c-1.08901,0,-1.97501,0.885996,-1.97501,1.975l0,3.895l0.766001,0c0,0,0,0,0,0,0,-0.666993,0.542002,-1.21,1.209,-1.21,0.667003,0,1.209,0.543009,1.209,1.21,0,0,0,0,0,0l0.766001,0l0,-3.895c0,-1.089,-0.886003,-1.975,-1.97501,-1.975zm1.19701,1.975c0,0.660002,-0.537002,1.197,-1.19701,1.197,-0.660003,0,-1.19701,-0.536997,-1.19701,-1.197,0,-0.659995,0.537002,-1.197,1.19701,-1.197,0.660003,0,1.19701,0.537005,1.19701,1.197z" id="path23"/>
 <path  fill="#958863" gorn="0.1.1.8.0.39" stroke-width="1" d="m27.7881,144.428l0,5.80801l0.766001,0c0,0,0,0,0,0,0,-0.667008,0.542002,-1.21,1.209,-1.21,0.667003,0,1.20901,0.542995,1.20901,1.21,0,0,0,0,0,0l0.766001,0l0,-5.80801zm3.17202,1.914c0,0.660002,-0.537002,1.197,-1.19701,1.197,-0.660002,0,-1.19701,-0.536997,-1.19701,-1.197,0,-0.659995,0.537002,-1.197,1.19701,-1.197,0.660003,0,1.19701,0.537005,1.19701,1.197z" id="path284"/>
 <path  fill="#958863" gorn="0.1.1.8.0.40" stroke-width="1" d="m36.9641,144.367c-1.08901,0,-1.97501,0.885996,-1.97501,1.975l0,3.895l0.766001,0c0,0,0,0,0,0,0,-0.666993,0.542002,-1.21,1.209,-1.21,0.667003,0,1.20901,0.543009,1.20901,1.21,0,0,0,0,0,0l0.766001,0l0,-3.895c0,-1.089,-0.886003,-1.975,-1.97501,-1.975zm1.19701,1.975c0,0.660002,-0.537002,1.197,-1.19701,1.197,-0.660003,0,-1.19701,-0.536997,-1.19701,-1.197,0,-0.659995,0.537002,-1.197,1.19701,-1.197,0.660003,0,1.19701,0.537005,1.19701,1.197z" id="path21"/>
 <path  fill="#958863" gorn="0.1.1.8.0.41" stroke-width="1" d="m54.9642,11.519l4.56402,0l0,-0.766001c0,0,0,0,0,0,-0.667003,0,-1.21,-0.541999,-1.21,-1.209,0,-0.667,0.543002,-1.209,1.21,-1.209,0,0,0,0,0,0l0,-0.766001l-4.56402,0c-1.08901,0,-1.97501,0.886003,-1.97501,1.975,0,1.089,0.886003,1.975,1.97501,1.975zm-1.19701,-1.975c0,-0.659999,0.537002,-1.197,1.19701,-1.197,0.660003,0,1.19701,0.537,1.19701,1.197,0,0.66,-0.537002,1.197,-1.19701,1.197,-0.660003,0,-1.19701,-0.537,-1.19701,-1.197z" id="path1"/>
 <path  fill="#958863" gorn="0.1.1.8.0.42" stroke-width="1" d="m6.53903,9.54403c0,-1.089,-0.886003,-1.975,-1.97501,-1.975L0,7.569l0,0.766001c0,0,0,0,0,0,0.667003,0,1.21,0.542,1.21,1.209,0,0.667001,-0.543002,1.21,-1.21,1.21,0,0,0,0,0,0l0,0.766001l4.56402,0c1.08901,-0.0010008,1.97501,-0.886997,1.97501,-1.976zM4.56402,10.741c-0.660003,0,-1.19701,-0.537,-1.19701,-1.197,0,-0.659999,0.537002,-1.197,1.19701,-1.197,0.660003,0,1.19701,0.537,1.19701,1.197,0,0.66,-0.537002,1.197,-1.19701,1.197z" id="path43"/>
 <circle  cx="4.5675" fill="none" r="1.152" stroke-width="0" id="connector0pin" cy="9.5445"/>
 <circle  cx="4.5675" fill="none" r="1.152" stroke-width="0" id="connector1pin" cy="16.749"/>
 <circle  cx="4.5675" fill="none" r="1.152" stroke-width="0" id="connector2pin" cy="23.949"/>
 <circle  cx="4.5675" fill="none" r="1.152" stroke-width="0" id="connector3pin" cy="31.149"/>
 <circle  cx="4.5675" fill="none" r="1.152" stroke-width="0" id="connector4pin" cy="38.349"/>
 <circle  cx="4.5675" fill="none" r="1.152" stroke-width="0" id="connector5pin" cy="45.549"/>
 <circle  cx="4.5675" fill="none" r="1.152" stroke-width="0" id="connector6pin" cy="52.749"/>
 <circle  cx="4.5675" fill="none" r="1.152" stroke-width="0" id="connector7pin" cy="59.949"/>
 <circle  cx="4.536" fill="none" r="1.152" stroke-width="0" id="connector8pin" cy="67.149"/>
 <circle  cx="4.536" fill="none" r="1.152" stroke-width="0" id="connector9pin" cy="74.349"/>
 <circle  cx="4.536" fill="none" r="1.152" stroke-width="0" id="connector10pin" cy="81.549"/>
 <circle  cx="4.536" fill="none" r="1.152" stroke-width="0" id="connector11pin" cy="88.749"/>
 <circle  cx="4.536" fill="none" r="1.152" stroke-width="0" id="connector12pin" cy="95.949"/>
 <circle  cx="4.536" fill="none" r="1.152" stroke-width="0" id="connector13pin" cy="103.149"/>
 <circle  cx="4.536" fill="none" r="1.152" stroke-width="0" id="connector14pin" cy="110.349"/>
 <circle  cx="4.536" fill="none" r="1.152" stroke-width="0" id="connector15pin" cy="117.549"/>
 <circle  cx="4.536" fill="none" r="1.152" stroke-width="0" id="connector16pin" cy="124.749"/>
 <circle  cx="4.536" fill="none" r="1.152" stroke-width="0" id="connector17pin" cy="131.949"/>
 <circle  cx="4.536" fill="none" r="1.152" stroke-width="0" id="connector18pin" cy="139.149"/>
 <circle  cx="4.536" fill="none" r="1.152" stroke-width="0" id="connector19pin" cy="146.349"/>
 <circle  cx="54.936" fill="none" r="1.152" stroke-width="0" id="connector20pin" cy="146.349"/>
 <circle  cx="54.936" fill="none" r="1.152" stroke-width="0" id="connector21pin" cy="139.149"/>
 <circle  cx="54.936" fill="none" r="1.152" stroke-width="0" id="connector22pin" cy="131.949"/>
 <circle  cx="54.936" fill="none" r="1.152" stroke-width="0" id="connector23pin" cy="124.749"/>
 <circle  cx="54.936" fill="none" r="1.152" stroke-width="0" id="connector24pin" cy="117.549"/>
 <circle  cx="54.936" fill="none" r="1.152" stroke-width="0" id="connector25pin" cy="110.349"/>
 <circle  cx="54.936" fill="none" r="1.152" stroke-width="0" id="connector26pin" cy="103.149"/>
 <circle  cx="54.936" fill="none" r="1.152" stroke-width="0" id="connector27pin" cy="95.949"/>
 <circle  cx="54.936" fill="none" r="1.152" stroke-width="0" id="connector28pin" cy="88.749"/>
 <circle  cx="54.936" fill="none" r="1.152" stroke-width="0" id="connector29pin" cy="81.549"/>
 <circle  cx="54.936" fill="none" r="1.152" stroke-width="0" id="connector30pin" cy="74.349"/>
 <circle  cx="54.936" fill="none" r="1.152" stroke-width="0" id="connector31pin" cy="67.149"/>
 <circle  cx="54.936" fill="none" r="1.152" stroke-width="0" id="connector32pin" cy="59.949"/>
 <circle  cx="54.936" fill="none" r="1.152" stroke-width="0" id="connector33pin" cy="52.749"/>
 <circle  cx="54.936" fill="none" r="1.152" stroke-width="0" id="connector34pin" cy="45.549"/>
 <circle  cx="54.936" fill="none" r="1.152" stroke-width="0" id="connector35pin" cy="38.349"/>
 <circle  cx="54.936" fill="none" r="1.152" stroke-width="0" id="connector36pin" cy="31.149"/>
 <circle  cx="54.936" fill="none" r="1.152" stroke-width="0" id="connector37pin" cy="23.949"/>
 <circle  cx="54.936" fill="none" r="1.152" stroke-width="0" id="connector38pin" cy="16.749"/>
 <circle  cx="54.936" fill="none" r="1.152" stroke-width="0" id="connector39pin" cy="9.549"/>
 <circle  cx="22.536" fill="none" r="1.152" stroke-width="0" id="connector40pin" cy="146.349"/>
 <circle  cx="29.736" fill="none" r="1.152" stroke-width="0" id="connector41pin" cy="146.349"/>
 <circle  cx="36.936" fill="none" r="1.152" stroke-width="0" id="connector42pin" cy="146.349"/>
</g>
</g></svg>